<?xml version="1.0" encoding="UTF-8" standalone="no"?>
<!-- Generator: Adobe Illustrator 14.0.0, SVG Export Plug-In . SVG Version: 6.00 Build 43363)  -->

<svg
   xmlns:dc="http://purl.org/dc/elements/1.1/"
   xmlns:cc="http://creativecommons.org/ns#"
   xmlns:rdf="http://www.w3.org/1999/02/22-rdf-syntax-ns#"
   xmlns:svg="http://www.w3.org/2000/svg"
   xmlns="http://www.w3.org/2000/svg"
   xmlns:sodipodi="http://sodipodi.sourceforge.net/DTD/sodipodi-0.dtd"
   xmlns:inkscape="http://www.inkscape.org/namespaces/inkscape"
   version="1.1"
   x="0px"
   y="0px"
   width="504px"
   height="504px"
   viewBox="0 0 504 504"
   enable-background="new 0 0 504 504"
   xml:space="preserve"
   id="svg3221"
   inkscape:version="0.48.4 r9939"
   sodipodi:docname="BeachBall.svg"><metadata
   id="metadata3248"><rdf:RDF><cc:Work
       rdf:about=""><dc:format>image/svg+xml</dc:format><dc:type
         rdf:resource="http://purl.org/dc/dcmitype/StillImage" /><dc:title></dc:title></cc:Work></rdf:RDF></metadata><defs
   id="defs3246" /><sodipodi:namedview
   pagecolor="#ffffff"
   bordercolor="#666666"
   borderopacity="1"
   objecttolerance="10"
   gridtolerance="10"
   guidetolerance="10"
   inkscape:pageopacity="0"
   inkscape:pageshadow="2"
   inkscape:window-width="1920"
   inkscape:window-height="1017"
   id="namedview3244"
   showgrid="false"
   inkscape:zoom="0.93650794"
   inkscape:cx="683.54422"
   inkscape:cy="355.42134"
   inkscape:window-x="-8"
   inkscape:window-y="-8"
   inkscape:window-maximized="1"
   inkscape:current-layer="svg3221" />
<g
   id="Layer_2">
	<circle
   cx="252.841"
   cy="229.342"
   r="185.241"
   id="circle3224" />
</g>
<g
   id="Layer_3">
	<circle
   fill="#FFFFFF"
   cx="217.909"
   cy="182.767"
   r="47.981"
   id="circle3227" />
</g>
<g
   id="Layer_4">
	<path
   d="m 219.895,126.127 c 0,0 3.407,-47.696 48.974,-68.563 0,0 88.153,-3.833 140.534,92.838 0,0 -40.031,-36.198 -142.238,5.536 -0.001,-10e-4 -6.814,-25.978 -47.27,-29.811 z"
   id="col-1"
   inkscape:connector-curvature="0"
   style="fill:#cb2027" />
	<path
   d="m 108.745,329.688 c 0,0 -8.091,-63.453 59.195,-118.815 0,0 10.221,24.274 37.476,27.255 0,0 -6.814,118.389 21.292,164.808 0,0.001 -66.86,4.684 -117.963,-73.248 z"
   id="col-2"
   inkscape:connector-curvature="0"
   style="fill:#cb2027" />
</g>
<g
   id="Layer_5">
	<path
   d="m 102.783,141.458 c 0,0 45.567,-88.579 159.698,-86.024 0,0 -38.753,13.202 -48.122,70.693 0,0 -34.495,5.962 -45.567,34.92 -0.001,0 -30.663,-17.885 -66.009,-19.589 z"
   id="col-3"
   inkscape:connector-curvature="0"
   style="fill:#243e90" />
	<path
   d="m 209.674,238.554 c 0,0 23.848,5.962 43.438,-16.182 0,0 93.264,77.081 150.328,97.947 0,0 -69.415,97.097 -165.232,80.913 -0.001,0 -34.78,-42.444 -28.534,-162.678 z"
   id="col-4"
   inkscape:connector-curvature="0"
   style="fill:#243e90" />
</g>
<g
   id="Layer_6">
	<path
   d="m 166.525,166.018 c 0,0 -8.516,24.415 -0.567,40.314 0,0 -63.028,41.451 -61.893,114.7 0,0 -56.781,-70.977 -3.407,-174.32 0.001,0 29.527,0 65.867,19.306 z"
   id="col-5"
   inkscape:connector-curvature="0"
   style="fill:#f6eb13" />
	<path
   d="m 269.868,160.336 c 0,0 98.233,-42.017 143.657,-0.567 0,0 41.452,78.358 -7.38,156.149 0,0 -67,-28.959 -149.334,-97.096 0.001,0 22.708,-19.876 13.057,-58.486 z"
   id="col-6"
   inkscape:connector-curvature="0"
   style="fill:#f6eb13" />
</g>
</svg>