<?xml version="1.0" encoding="UTF-8" standalone="no"?>
<!-- Created with Inkscape (http://www.inkscape.org/) -->

<svg
   xmlns:dc="http://purl.org/dc/elements/1.1/"
   xmlns:cc="http://creativecommons.org/ns#"
   xmlns:rdf="http://www.w3.org/1999/02/22-rdf-syntax-ns#"
   xmlns:svg="http://www.w3.org/2000/svg"
   xmlns="http://www.w3.org/2000/svg"
   xmlns:sodipodi="http://sodipodi.sourceforge.net/DTD/sodipodi-0.dtd"
   xmlns:inkscape="http://www.inkscape.org/namespaces/inkscape"
   width="100%"
   height="100%"
   x="0px"
   y="0px"
   id="svg2"
   version="1.1"
   inkscape:version="0.48.5 r10040"
   sodipodi:docname="dude.svg"
   viewBox="200 100 300 500">
  <metadata
     id="metadata23">
    <rdf:RDF>
      <cc:Work
         rdf:about="">
        <dc:format>image/svg+xml</dc:format>
        <dc:type
           rdf:resource="http://purl.org/dc/dcmitype/StillImage" />
      </cc:Work>
    </rdf:RDF>
  </metadata>
  <defs
     id="defs21" />
  <sodipodi:namedview
     pagecolor="#ffffff"
     bordercolor="#666666"
     borderopacity="1"
     objecttolerance="10"
     gridtolerance="10"
     guidetolerance="10"
     inkscape:pageopacity="0"
     inkscape:pageshadow="2"
     inkscape:window-width="1280"
     inkscape:window-height="1002"
     id="namedview19"
     showgrid="false"
     inkscape:zoom="1.551129"
     inkscape:cx="189.61864"
     inkscape:cy="243.64407"
     inkscape:window-x="-8"
     inkscape:window-y="-8"
     inkscape:window-maximized="1"
     inkscape:current-layer="svg2" />
  <g
     id="g3814">
    <path
       inkscape:connector-curvature="0"
       id="loc-1"
       d="m 346.53161,511.14518 c -3.48337,60.95897 2.61253,76.63409 2.61253,76.63409 l -35.70453,4.35423 c 0,0 -0.87084,-15.67516 8.70842,-20.90023 9.57926,-5.22503 26.12526,12.19181 26.12526,12.19181"
       style="fill:none;stroke:#000000;stroke-width:1.02713311;stroke-linecap:butt;stroke-linejoin:miter;stroke-miterlimit:4;stroke-opacity:1;stroke-dasharray:none" />
    <path
       inkscape:connector-curvature="0"
       id="loc-2"
       d="m 414.90303,514.19313 c -3.48337,60.95895 2.61252,76.63407 2.61252,76.63407 l -35.70453,4.35423 c 0,0 -0.87084,-15.67516 8.70842,-20.90023 9.57927,-5.22503 26.12527,12.19181 26.12527,12.19181"
       style="fill:none;stroke:#000000;stroke-width:1.02713311;stroke-linecap:butt;stroke-linejoin:miter;stroke-miterlimit:4;stroke-opacity:1;stroke-dasharray:none" />
    <path
       inkscape:connector-curvature="0"
       id="col-1"
       d="m 337.50972,445.8873 -14.05838,73.62668 40.54806,3.40687 10.90911,-30.63519 13.25615,35.89808 37.26582,-6.00191 -17.54364,-75.94164 z"
       style="fill:#ffffff;stroke:#000000;stroke-width:0.93404788000000005;stroke-linecap:butt;stroke-linejoin:miter;stroke-miterlimit:4;stroke-opacity:1;stroke-dasharray:none" />
    <path
       inkscape:connector-curvature="0"
       id="col-2"
       d="m 391.38011,312.15973 -72.27379,8.70655 -0.24074,14.14983 -35.00009,14.13646 c 0,0 18.57023,17.05644 18.06845,21.57247 -0.33787,3.04081 9.77108,-1.41153 16.42343,-4.6542 l -1.43103,85.8619 108.41068,-5.67063 -19.82046,-78.2654 c 1.10158,0.58432 19.37355,10.22129 18.95114,6.41959 -0.43542,-3.91879 15.67448,-18.71041 15.67448,-18.71041 l -42.03488,-16.98514 -6.72719,-26.56102 z"
       style="fill:#ffffff;stroke:#000000;stroke-width:1.02713311000000010;stroke-linecap:butt;stroke-linejoin:miter;stroke-miterlimit:4;stroke-opacity:1;stroke-dasharray:none" />
    <path
       transform="matrix(0.42797211,0,0,0.42797211,189.22676,106.63223)"
       d="m 565.45395,302.50494 a 199.61563,207.40732 0 1 1 -399.23126,0 199.61563,207.40732 0 1 1 399.23126,0 z"
       sodipodi:ry="207.40732"
       sodipodi:rx="199.61563"
       sodipodi:cy="302.50494"
       sodipodi:cx="365.83832"
       id="col-3"
       style="fill:#ffffff;fill-opacity:1;stroke:#000000;stroke-width:2.40000010000000020;stroke-miterlimit:4;stroke-opacity:1;stroke-dasharray:none"
       sodipodi:type="arc" />
    <path
       transform="matrix(0.12690127,0,0,0.10847845,317.23434,189.07829)"
       d="m -173.5006,380.90121 a 67.624245,92.214882 0 1 1 -135.24849,0 67.624245,92.214882 0 1 1 135.24849,0 z"
       sodipodi:ry="92.214882"
       sodipodi:rx="67.624245"
       sodipodi:cy="380.90121"
       sodipodi:cx="-241.12485"
       id="loc-6"
       style="fill:#000000;fill-opacity:1;stroke:#000000;stroke-width:2;stroke-miterlimit:4;stroke-opacity:1;stroke-dasharray:none"
       sodipodi:type="arc" />
    <path
       inkscape:connector-curvature="0"
       id="col-4"
       d="m 274.54119,258.34958 c 40.32826,34.68313 111.33874,-19.80491 111.33874,-19.80491 0,0 -8.26075,65.67274 -37.49511,68.60093 -29.23436,2.92819 -73.84363,-48.79602 -73.84363,-48.79602 z"
       style="fill:#ffffff;fill-opacity:1;stroke:#000000;stroke-width:1.02713311000000010;stroke-linecap:butt;stroke-linejoin:miter;stroke-miterlimit:4;stroke-opacity:1;stroke-dasharray:none" />
    <path
       transform="matrix(0.12690127,0,0,0.10847845,381.47574,185.40763)"
       d="m -173.5006,380.90121 a 67.624245,92.214882 0 1 1 -135.24849,0 67.624245,92.214882 0 1 1 135.24849,0 z"
       sodipodi:ry="92.214882"
       sodipodi:rx="67.624245"
       sodipodi:cy="380.90121"
       sodipodi:cx="-241.12485"
       id="loc-8"
       style="fill:#000000;fill-opacity:1;stroke:#000000;stroke-width:2;stroke-miterlimit:4;stroke-opacity:1;stroke-dasharray:none"
       sodipodi:type="arc" />
    <path
       transform="matrix(0.21870545,0.05860195,0.05860195,-0.21870545,223.77112,254.85705)"
       sodipodi:open="true"
       sodipodi:end="3.1033852"
       sodipodi:start="0"
       d="m 282.72697,219.39362 a 52.31562,51.573555 0 0 1 -104.59306,1.97001"
       sodipodi:ry="51.573555"
       sodipodi:rx="52.31562"
       sodipodi:cy="219.39362"
       sodipodi:cx="230.41135"
       id="loc-9"
       style="fill:none;stroke:#000000;stroke-width:4.53639507;stroke-miterlimit:4;stroke-opacity:1;stroke-dasharray:none"
       sodipodi:type="arc" />
    <path
       transform="matrix(0.24253764,-0.06116991,-0.06116991,-0.24253764,305.54506,282.02705)"
       sodipodi:open="true"
       sodipodi:end="3.1033852"
       sodipodi:start="0"
       d="m 282.72697,219.39362 a 52.31562,51.573555 0 0 1 -104.59306,1.97001"
       sodipodi:ry="51.573555"
       sodipodi:rx="52.31562"
       sodipodi:cy="219.39362"
       sodipodi:cx="230.41135"
       id="loc-10"
       style="fill:none;stroke:#000000;stroke-width:4.10635614;stroke-miterlimit:4;stroke-opacity:1;stroke-dasharray:none"
       sodipodi:type="arc" />
    <path
       inkscape:connector-curvature="0"
       id="loc-11"
       d="m 431.0033,365.71454 26.12527,22.64189 22.6419,1.74168 -24.38359,-3.48336 15.67516,19.15852 -16.546,-19.15852 -4.35421,34.83368"
       style="fill:none;stroke:#000000;stroke-width:1.02713311;stroke-linecap:butt;stroke-linejoin:miter;stroke-miterlimit:4;stroke-opacity:1;stroke-dasharray:none" />
    <path
       inkscape:connector-curvature="0"
       id="loc-12"
       d="m 292.67156,357.54744 -27.23541,21.29359 -22.70096,0.59597 24.52838,-2.24747 -16.62273,18.34243 17.49246,-18.29845 2.58944,35.00914"
       style="fill:none;stroke:#000000;stroke-width:1.02713311;stroke-linecap:butt;stroke-linejoin:miter;stroke-miterlimit:4;stroke-opacity:1;stroke-dasharray:none" />
    <path
       inkscape:connector-curvature="0"
       id="col-5"
       d="m 314.64403,587.18404 c 0.59155,-7.05601 3.91685,-13.24214 8.21443,-15.28147 4.26664,-2.02465 10.99026,0.46457 19.21892,7.11521 3.34585,2.70418 4.92699,4.40388 5.38945,5.79342 0.35996,1.08157 0.58275,2.04408 0.49507,2.13896 -0.16739,0.18107 -31.46402,4.09869 -32.84536,4.11148 -0.63683,0.006 -0.73236,-0.77809 -0.47251,-3.8776 l 0,0 z"
       style="fill:#ffffff;fill-opacity:1;fill-rule:evenodd;stroke:#000000;stroke-width:1.37322700000000000;stroke-miterlimit:4;stroke-opacity:1;stroke-dasharray:none" />
    <path
       inkscape:connector-curvature="0"
       id="col-6"
       d="m 382.78712,590.81462 c 0.83906,-8.22648 4.94296,-14.97201 9.91616,-16.29902 2.05271,-0.54776 2.93362,-0.46409 6.00787,0.57036 6.69639,2.25336 16.88798,10.199 17.17945,13.3936 l 0.15528,1.70192 -16.80608,2.04895 -16.80607,2.04892 0.35339,-3.46473 z"
       style="fill:#ffffff;fill-opacity:1;fill-rule:evenodd;stroke:#000000;stroke-width:1.37322700000000000;stroke-miterlimit:4;stroke-opacity:1;stroke-dasharray:none" />
    <path
       id="col-7"
       d="M 305.71875 117.96875 C 292.35767 117.96875 281.5 127.47486 281.5 139.1875 C 281.5 142.2841 282.26425 145.2229 283.625 147.875 C 275.16622 151.42642 269.25 159.49069 269.25 168.875 C 269.25 170.50382 269.44292 172.09222 269.78125 173.625 C 264.08465 174.93966 259.84375 179.9723 259.84375 186 C 259.84375 193.02758 265.60441 198.71875 272.71875 198.71875 C 278.28209 198.71875 283.01034 195.22327 284.8125 190.34375 C 287.44909 191.2924 290.29685 191.8125 293.28125 191.8125 C 297.26162 191.8125 301.005 190.88815 304.3125 189.25 C 305.80772 191.38091 308.10465 192.75 310.71875 192.75 C 314.06989 192.75 316.95903 190.50137 318.21875 187.28125 C 321.9027 189.73803 326.49034 191.1875 331.46875 191.1875 C 337.62726 191.1875 343.19508 188.95861 347.1875 185.375 C 349.67539 189.21536 354.36909 191.8125 359.75 191.8125 C 367.6227 191.8125 374.01371 186.26966 374.1875 179.375 C 374.2696 186.77815 381.55921 192.75 390.53125 192.75 C 390.8758 192.75 391.22325 192.73605 391.5625 192.71875 C 392.15898 197.35002 396.11265 200.90625 400.90625 200.90625 C 402.03968 200.90625 403.11841 200.71048 404.125 200.34375 C 405.76609 204.63145 412.34405 207.84375 420.21875 207.84375 C 429.32858 207.84375 436.71875 203.54238 436.71875 198.25 C 436.71875 192.95762 429.32858 188.65625 420.21875 188.65625 C 419.67044 188.65625 419.12832 188.68835 418.59375 188.71875 C 421.61337 185.75076 423.53125 181.25952 423.53125 176.25 C 423.53125 167.31369 417.39189 160.0625 409.84375 160.0625 C 409.18989 160.0625 408.56686 160.1449 407.9375 160.25 C 406.86166 153.38844 401.18017 148.125 394.3125 148.125 C 392.12335 148.125 390.05838 148.67795 388.21875 149.625 C 387.22259 142.25494 379.71963 136.5 370.59375 136.5 C 367.33267 136.5 364.28238 137.25475 361.65625 138.53125 C 358.18212 131.84743 349.20835 127.09375 338.6875 127.09375 C 334.48361 127.09375 330.51994 127.8485 327.0625 129.1875 C 322.99035 122.5055 314.96454 117.96875 305.71875 117.96875 z "
       style="fill:#ffffff;fill-opacity:1;fill-rule:evenodd;stroke:#000000;stroke-width:2.40000010000000020;stroke-miterlimit:4;stroke-opacity:1;stroke-dasharray:none" />
  </g>
</svg>
