<?xml version="1.0" encoding="utf-8"?>
<!-- Generator: Adobe Illustrator 15.1.0, SVG Export Plug-In . SVG Version: 6.00 Build 0)  -->
<!DOCTYPE svg PUBLIC "-//W3C//DTD SVG 1.1//EN" "http://www.w3.org/Graphics/SVG/1.1/DTD/svg11.dtd">
<svg version="1.1" xmlns="http://www.w3.org/2000/svg" xmlns:xlink="http://www.w3.org/1999/xlink" x="0px" y="0px"
	 width="1190.55px" height="841.89px" viewBox="0 0 1190.55 841.89" enable-background="new 0 0 1190.55 841.89"
	 xml:space="preserve">
<g id="Ebene_8">
	<rect x="-13.256" y="-10" fill="#009FE3" stroke="#000000" stroke-miterlimit="10" width="1234.256" height="326.943"/>
</g>
<g id="Ebene_7">
	<g>
		<polygon fill="#219849" points="-15,315.527 195.399,239.853 1016.766,281.191 1235.418,253.646 1240.275,392.189 
			452.363,315.854 41.404,369.145 -13.001,370.724 		"/>
		<path d="M-15.103,315.458l210.295-76.179l0.114-0.042l0.123,0.006l205.353,10.12l205.342,10.308l410.657,21.192l-0.058,0.002
			l218.636-27.677l0.501-0.063l0.019,0.506l5.001,138.538l0.024,0.69l-0.688-0.066l-393.994-37.774l-393.954-38.195l0.219-0.003
			l-411.035,52.7l-0.02,0.002l-0.019,0l-54.41,1.442l-0.238,0.006l-0.008-0.237L-15.103,315.458z M-14.897,315.596l2.135,55.119
			l-0.246-0.231l54.401-1.716l-0.037,0.003l410.882-53.881l0.108-0.014l0.11,0.011l393.959,38.14l393.918,38.561l-0.664,0.624
			l-4.714-138.548l0.52,0.442l-218.669,27.413l-0.028,0.003l-0.029-0.001L606.04,261.373L400.7,251.011l-205.331-10.549l0.237-0.036
			L-14.897,315.596z"/>
	</g>
</g>
<g id="Ebene_5">
	<g>
		<polyline fill="#AA8A78" points="1210.889,341.415 752.599,306.842 752.599,284.417 1210.889,317.909 		"/>
		<path d="M1210.881,341.515l-57.317-3.906l-57.305-4.078c-38.195-2.817-76.396-5.571-114.578-8.565l-114.537-9.115
			c-38.179-3.038-76.388-5.679-114.583-8.498l-0.473-0.035l-0.001-0.476l-0.069-22.425l-0.002-0.624l0.625,0.044l114.6,8.003
			l57.294,4.087l57.284,4.21c38.193,2.764,76.37,5.747,114.55,8.686l57.27,4.412l57.259,4.575l-0.016,0.199l-57.314-3.798
			l-57.303-3.962c-38.201-2.643-76.406-5.243-114.595-8.061l-57.288-4.163l-57.279-4.286l-114.545-8.743l0.623-0.58l-0.069,22.425
			l-0.473-0.51c38.186,2.943,76.358,6.064,114.562,8.789l114.607,8.172c38.199,2.768,76.381,5.776,114.566,8.721l57.269,4.565
			l57.255,4.737L1210.881,341.515z"/>
	</g>
	<g>
		<polyline fill="#AA8A78" points="1210.889,308.594 752.599,274.021 752.599,251.596 1210.889,285.087 		"/>
		<path d="M1210.881,308.693l-57.317-3.906l-57.305-4.078c-38.195-2.817-76.396-5.571-114.578-8.565l-114.537-9.115
			c-38.179-3.038-76.388-5.679-114.583-8.498l-0.473-0.035l-0.001-0.476l-0.069-22.425l-0.002-0.624l0.625,0.044l114.6,8.003
			l57.294,4.087l57.284,4.21c38.193,2.764,76.37,5.746,114.55,8.685l57.27,4.412l57.259,4.575l-0.016,0.199l-57.314-3.798
			l-57.303-3.961c-38.201-2.643-76.406-5.243-114.595-8.061l-57.288-4.163l-57.279-4.286l-114.545-8.743l0.623-0.58l-0.069,22.425
			l-0.473-0.51c38.186,2.943,76.358,6.064,114.562,8.789l114.607,8.172c38.199,2.768,76.381,5.776,114.566,8.721l57.269,4.565
			l57.255,4.737L1210.881,308.693z"/>
	</g>
	<g>
		<polyline fill="#AA8A78" points="194.727,212.775 643.71,235.406 643.71,260.095 194.727,223.222 		"/>
		<path d="M194.731,212.675l56.144,2.413l56.135,2.585c37.418,1.821,74.84,3.581,112.25,5.581l112.222,6.13l28.059,1.47
			l28.064,1.361l56.13,2.679l0.486,0.023l0.001,0.489l0.08,24.689l0.002,0.642l-0.644-0.051l-112.275-8.856l-56.131-4.51
			l-56.121-4.637c-37.417-3.045-74.817-6.316-112.22-9.532l-56.104-4.833l-56.091-4.996l0.017-0.199l56.155,4.222l56.141,4.386
			c37.427,2.93,74.858,5.804,112.271,8.904l56.125,4.581l56.115,4.708l112.216,9.581l-0.642,0.591l0.08-24.689l0.486,0.513
			l-56.115-2.979l-28.059-1.468l-28.064-1.358l-112.27-5.185c-37.421-1.772-74.83-3.785-112.242-5.735l-56.111-3.073l-56.102-3.245
			L194.731,212.675z"/>
	</g>
	<g>
		<polyline fill="#AA8A78" points="196.146,240.774 644.771,269.233 644.426,293.919 195.999,251.222 		"/>
		<path d="M196.152,240.675l56.104,3.141l56.094,3.313c37.39,2.307,74.783,4.552,112.162,7.038l112.126,7.586l28.036,1.835
			l28.042,1.725l56.087,3.407l0.486,0.029l-0.005,0.49l-0.267,24.687l-0.007,0.641l-0.643-0.059l-112.141-10.312l-56.063-5.239
			l-56.051-5.365c-37.372-3.53-74.722-7.287-112.077-10.988l-56.032-5.561l-56.017-5.723l0.019-0.199l56.09,4.951l56.075,5.114
			c37.382,3.415,74.771,6.775,112.137,10.361l56.056,5.309l56.044,5.436l112.072,11.036l-0.648,0.582l0.425-24.685l0.481,0.52
			l-56.069-3.708l-28.036-1.832l-28.042-1.723l-112.187-6.643c-37.393-2.258-74.77-4.756-112.151-7.192l-56.063-3.801l-56.052-3.974
			L196.152,240.675z"/>
	</g>
	<g>
		<polygon fill="#AA8A78" points="-11.84,336.459 196.307,250.427 195.626,239.042 -13.256,312.786 		"/>
		<path d="M-11.747,336.311c17.167-7.475,34.412-14.766,51.656-22.055c17.331-7.207,34.61-14.537,51.999-21.6
			c17.363-7.127,34.816-14.036,52.212-21.083l26.049-10.681c8.657-3.623,17.337-7.189,25.975-10.858l-0.262,0.418l-0.769-11.38
			l0.684,0.454l-52.089,18.809c-17.393,6.184-34.756,12.453-52.174,18.568c-17.42,6.109-34.814,12.289-52.271,18.291l-26.17,9.048
			l-26.203,8.957l0.292-0.439L-11.747,336.311z M-11.93,336.602l-1.763-23.79l-0.024-0.325l0.316-0.115l26.018-9.479l26.05-9.388
			c17.356-6.288,34.775-12.399,52.169-18.581c17.396-6.175,34.847-12.198,52.267-18.304l52.352-18.063l0.649-0.224l0.035,0.678
			l0.591,11.391l0.016,0.307l-0.278,0.112c-8.708,3.5-17.373,7.103-26.061,10.65l-25.988,10.827
			c-17.295,7.292-34.533,14.722-51.861,21.934c-17.302,7.275-34.714,14.284-52.075,21.417
			c-17.403,7.031-34.806,14.061-52.286,20.905L-11.93,336.602z"/>
	</g>
	<g>
		<polygon fill="#AA8A78" points="-14.277,297.762 195.877,223.932 195.877,212.527 -14.277,274.047 		"/>
		<path d="M-14.175,297.618c17.352-6.467,34.769-12.746,52.187-19.024c17.5-6.19,34.955-12.507,52.505-18.551
			c17.528-6.11,35.134-11.997,52.691-18.023l26.296-9.153c8.743-3.115,17.505-6.173,26.232-9.335l-0.284,0.4l-0.09-11.404
			l0.659,0.493l-52.428,15.76c-17.501,5.166-34.978,10.417-52.499,15.514c-17.523,5.089-35.026,10.252-52.581,15.233l-26.32,7.518
			l-26.346,7.426l0.317-0.424L-14.175,297.618z M-14.375,297.899l-0.344-23.853l-0.005-0.326l0.323-0.098l26.192-7.954l26.219-7.862
			c17.47-5.272,34.994-10.362,52.496-15.526c17.504-5.156,35.053-10.159,52.578-15.246l52.649-15l0.664-0.189l-0.005,0.682
			l-0.09,11.404l-0.002,0.305l-0.281,0.096c-8.787,2.991-17.537,6.085-26.307,9.123l-26.243,9.304
			C126,249.037,108.58,255.456,91.083,261.65c-17.475,6.261-35.045,12.249-52.571,18.364c-17.563,6.011-35.125,12.022-52.755,17.842
			L-14.375,297.899z"/>
	</g>
</g>
<g id="Ebene_6">
	<g>
		<polygon fill="#AA8A78" points="35.576,236.027 43.26,249.525 43.26,336.306 23.08,346.049 25.604,249.881 		"/>
		<path d="M35.663,235.978c1.372,2.198,2.713,4.413,4.055,6.627c1.345,2.213,2.692,4.425,4.003,6.657l0.067,0.113l0.003,0.149
			l0.208,10.848l0.115,10.848c0.041,7.231,0.083,14.463-0.038,21.695l-0.43,21.695c-0.057,3.616-0.074,7.232-0.085,10.848
			l0.063,10.848l0.001,0.228l-0.208,0.1c-1.681,0.814-3.34,1.672-5.01,2.508l-5.003,2.522l-9.996,5.066l-1.104,0.56l0.018-1.262
			c0.114-8.017,0.246-16.033,0.419-24.047c0.159-8.016,0.309-16.031,0.531-24.044c0.228-8.014,0.468-16.027,0.783-24.038
			c0.3-8.012,0.585-16.024,0.966-24.033l0.009-0.191l0.101-0.134c3.416-4.552,6.872-9.075,10.363-13.572l0.09-0.116L35.663,235.978z
			 M35.565,236.221c-3.127,4.693-6.288,9.361-9.489,14l0.109-0.325c-0.04,8.019-0.175,16.035-0.296,24.051
			c-0.105,8.017-0.286,16.032-0.479,24.046c-0.198,8.015-0.469,16.027-0.731,24.04c-0.247,8.013-0.536,16.025-0.843,24.037
			l-1.086-0.702l10.184-4.677l5.087-2.349c1.693-0.788,3.397-1.554,5.08-2.364l-0.206,0.328l0.063-10.848
			c-0.011-3.616-0.028-7.232-0.085-10.848l-0.43-21.695c-0.122-7.232-0.079-14.464-0.038-21.695l0.115-10.848l0.208-10.848
			l0.069,0.263c-1.249-2.268-2.464-4.555-3.68-6.841C37.924,240.71,36.731,238.474,35.565,236.221z"/>
	</g>
	<g>
		<polygon fill="#AA8A78" points="131.541,204.506 138.474,216.688 138.474,292.957 120.264,303.791 122.542,217.008 		"/>
		<path d="M131.627,204.457c1.247,1.979,2.463,3.974,3.68,5.969c1.22,1.994,2.442,3.986,3.628,5.999l0.066,0.112l0.003,0.15
			l0.208,9.534l0.115,9.534c0.041,6.355,0.083,12.711-0.038,19.067l-0.43,19.067c-0.057,3.178-0.074,6.356-0.085,9.534l0.063,9.534
			l0.001,0.206l-0.18,0.107c-1.516,0.904-3.007,1.852-4.511,2.777l-4.503,2.792l-8.995,5.603l-1.162,0.724l0.018-1.395
			c0.093-7.234,0.205-14.468,0.357-21.701c0.139-7.233,0.268-14.466,0.47-21.698c0.208-7.231,0.427-14.463,0.722-21.692
			c0.279-7.229,0.544-14.459,0.904-21.687l0.01-0.192l0.1-0.133c3.091-4.101,6.223-8.173,9.39-12.22l0.09-0.115L131.627,204.457z
			 M131.53,204.701c-2.802,4.242-5.639,8.459-8.515,12.647l0.109-0.325c-0.02,7.236-0.134,14.47-0.235,21.705
			c-0.084,7.234-0.245,14.467-0.417,21.699c-0.178,7.232-0.428,14.462-0.669,21.693c-0.227,7.231-0.495,14.461-0.781,21.69
			l-1.145-0.671l9.215-5.231l4.602-2.625c1.531-0.88,3.075-1.738,4.593-2.639l-0.178,0.313l0.063-9.534
			c-0.011-3.178-0.028-6.356-0.085-9.534l-0.43-19.067c-0.122-6.355-0.079-12.711-0.038-19.067l0.115-9.534l0.208-9.534l0.069,0.263
			c-1.124-2.048-2.214-4.116-3.305-6.183C133.639,208.751,132.571,206.734,131.53,204.701z"/>
	</g>
	<g>
		<polygon fill="#AA8A78" points="206.579,182.893 213.471,193.805 213.471,270.923 192.807,268.916 195.391,194.092 		"/>
		<path d="M206.663,182.839c1.237,1.763,2.445,3.544,3.653,5.325c1.211,1.779,2.424,3.557,3.604,5.357l0.079,0.12l0.003,0.164
			l0.208,9.64l0.115,9.64c0.041,6.427,0.083,12.853-0.038,19.28l-0.43,19.279c-0.057,3.213-0.074,6.426-0.085,9.64l0.063,9.64
			l0.003,0.401l-0.402-0.039c-1.722-0.166-3.449-0.281-5.174-0.422l-5.175-0.406l-10.353-0.788l-0.698-0.053l0.014-0.727
			c0.119-6.239,0.255-12.477,0.434-18.713c0.164-6.237,0.319-12.474,0.546-18.709c0.233-6.234,0.478-12.469,0.798-18.701
			c0.304-6.232,0.595-12.465,0.981-18.694l0.015-0.243l0.155-0.149c3.809-3.653,7.653-7.271,11.528-10.858l0.087-0.08
			L206.663,182.839z M206.56,183.059c-3.554,3.846-7.138,7.663-10.757,11.444l0.17-0.391c-0.045,6.241-0.185,12.479-0.311,18.718
			c-0.11,6.239-0.296,12.475-0.494,18.711c-0.204,6.235-0.479,12.469-0.746,18.702c-0.252,6.234-0.546,12.467-0.858,18.699
			l-0.684-0.78l10.311,1.219l5.157,0.598c1.719,0.194,3.437,0.413,5.158,0.582l-0.399,0.363l0.063-9.64
			c-0.011-3.213-0.028-6.427-0.085-9.64l-0.43-19.279c-0.122-6.427-0.079-12.853-0.038-19.28l0.115-9.64l0.208-9.64l0.082,0.284
			c-1.118-1.838-2.203-3.697-3.289-5.556C208.666,186.714,207.6,184.895,206.56,183.059z"/>
	</g>
	<g>
		<polygon fill="#AA8A78" points="350.434,183.972 358.314,196.451 358.314,284.628 334.686,282.332 337.641,196.778 		"/>
		<path d="M350.518,183.919c1.402,2.024,2.775,4.066,4.148,6.108c1.376,2.041,2.754,4.08,4.098,6.14l0.079,0.121l0.003,0.163
			l0.208,11.022l0.115,11.022c0.041,7.348,0.083,14.696-0.038,22.044l-0.43,22.044c-0.057,3.674-0.074,7.348-0.085,11.022
			l0.063,11.022l0.002,0.401l-0.402-0.039c-1.969-0.189-3.943-0.329-5.915-0.494l-5.917-0.478l-11.835-0.933l-0.699-0.055
			l0.015-0.725c0.149-7.133,0.317-14.265,0.527-21.396c0.195-7.131,0.38-14.263,0.639-21.392c0.264-7.128,0.54-14.257,0.891-21.383
			c0.335-7.126,0.657-14.253,1.074-21.377l0.014-0.241l0.156-0.15c4.344-4.188,8.723-8.342,13.133-12.465l0.087-0.081
			L350.518,183.919z M350.415,184.138c-4.089,4.382-8.208,8.734-12.361,13.052l0.169-0.391c-0.076,7.136-0.247,14.268-0.404,21.4
			c-0.141,7.133-0.358,14.264-0.586,21.394c-0.234,7.13-0.541,14.257-0.839,21.385c-0.283,7.128-0.607,14.255-0.951,21.381
			l-0.684-0.78l11.793,1.363l5.897,0.67c1.967,0.218,3.931,0.46,5.899,0.654l-0.399,0.363l0.063-11.022
			c-0.011-3.674-0.028-7.348-0.085-11.022l-0.43-22.044c-0.122-7.348-0.079-14.696-0.038-22.044l0.115-11.022l0.208-11.022
			l0.082,0.284c-1.283-2.099-2.532-4.219-3.783-6.339C352.851,188.315,351.619,186.235,350.415,184.138z"/>
	</g>
	<g>
		<polygon fill="#AA8A78" points="490.486,190.308 499.036,203.847 499.036,299.518 473.4,297.028 476.607,204.203 		"/>
		<path d="M490.571,190.255c1.513,2.201,2.998,4.419,4.482,6.638c1.488,2.217,2.977,4.433,4.432,6.67l0.079,0.122l0.003,0.162
			l0.208,11.959l0.115,11.959c0.041,7.972,0.083,15.945-0.038,23.917l-0.43,23.917c-0.057,3.986-0.074,7.973-0.085,11.959
			l0.063,11.959l0.002,0.401l-0.402-0.039c-2.137-0.206-4.278-0.361-6.417-0.542l-6.418-0.526l-12.839-1.03l-0.7-0.056l0.016-0.724
			c0.17-7.739,0.359-15.477,0.59-23.213c0.216-7.737,0.422-15.475,0.701-23.21c0.285-7.735,0.582-15.469,0.954-23.201
			c0.356-7.732,0.699-15.465,1.137-23.195l0.013-0.24l0.157-0.151c4.707-4.551,9.448-9.068,14.22-13.554l0.087-0.082
			L490.571,190.255z M490.467,190.473c-4.451,4.745-8.932,9.461-13.448,14.141l0.169-0.391c-0.097,7.742-0.289,15.479-0.467,23.218
			c-0.162,7.739-0.399,15.476-0.649,23.212c-0.255,7.736-0.583,15.469-0.901,23.203c-0.304,7.734-0.65,15.467-1.014,23.199
			l-0.684-0.78l12.797,1.46l6.399,0.719c2.134,0.234,4.265,0.493,6.401,0.702l-0.399,0.363l0.063-11.959
			c-0.011-3.986-0.028-7.973-0.085-11.959l-0.43-23.917c-0.122-7.973-0.079-15.945-0.038-23.917l0.115-11.959l0.208-11.959
			l0.082,0.284c-1.395-2.276-2.755-4.573-4.118-6.869C493.126,195.005,491.783,192.748,490.467,190.473z"/>
	</g>
	<g>
		<polygon fill="#AA8A78" points="637.15,200.269 645.866,214.069 645.866,311.586 619.735,309.049 623.004,214.433 		"/>
		<path d="M637.235,200.216c1.541,2.244,3.053,4.506,4.564,6.769c1.516,2.261,3.032,4.52,4.516,6.801l0.079,0.122l0.003,0.162
			l0.208,12.19l0.09,12.189c0.017,4.063,0.08,8.126,0.061,12.19l-0.074,12.189l-0.425,24.379l-0.089,12.189l0.062,12.19l0.002,0.401
			l-0.401-0.039c-2.178-0.209-4.36-0.37-6.541-0.555l-6.542-0.538l-13.086-1.054l-0.7-0.056l0.017-0.724
			c0.176-7.888,0.369-15.775,0.605-23.661c0.22-7.887,0.426-15.773,0.746-23.657c0.305-7.883,0.545-15.769,0.94-23.649
			c0.361-7.882,0.709-15.764,1.151-23.643l0.014-0.241l0.156-0.15c2.406-2.313,4.793-4.644,7.224-6.932l7.351-6.973L637.235,200.216
			z M637.132,200.434l-6.793,7.178c-2.284,2.434-4.613,4.823-6.923,7.231l0.17-0.391c-0.103,7.891-0.3,15.778-0.482,23.666
			c-0.15,7.889-0.454,15.772-0.694,23.659c-0.225,7.886-0.563,15.769-0.888,23.651c-0.31,7.883-0.66,15.765-1.029,23.646
			l-0.684-0.78l13.045,1.484l6.522,0.73c2.176,0.238,4.348,0.501,6.525,0.714l-0.399,0.363l0.062-12.19l-0.089-12.189l-0.425-24.379
			l-0.074-12.189c-0.02-4.063,0.044-8.126,0.061-12.19l0.09-12.189l0.208-12.19l0.082,0.284c-1.422-2.319-2.811-4.66-4.2-7
			C639.846,205.053,638.476,202.752,637.132,200.434z"/>
	</g>
	<g>
		<polygon fill="#AA8A78" points="1183.639,254.839 1192.355,268.639 1192.355,366.155 1166.224,363.618 1169.492,269.001 		"/>
		<path d="M1183.724,254.786c1.541,2.244,3.053,4.506,4.565,6.769c1.516,2.26,3.032,4.52,4.516,6.801l0.079,0.122l0.003,0.162
			l0.208,12.189l0.09,12.19c0.017,4.063,0.08,8.126,0.06,12.189l-0.073,12.189l-0.425,24.379l-0.089,12.19l0.062,12.189l0.002,0.401
			l-0.401-0.039c-2.178-0.209-4.36-0.37-6.541-0.555l-6.542-0.538l-13.087-1.054l-0.7-0.056l0.017-0.724
			c0.176-7.888,0.369-15.775,0.605-23.661c0.22-7.887,0.426-15.773,0.746-23.657c0.305-7.883,0.545-15.769,0.94-23.649
			c0.361-7.882,0.709-15.764,1.151-23.643l0.014-0.241l0.156-0.15c2.406-2.312,4.793-4.644,7.224-6.931l7.351-6.973
			L1183.724,254.786z M1183.62,255.004l-6.793,7.178c-2.284,2.433-4.613,4.823-6.923,7.231l0.17-0.391
			c-0.103,7.891-0.3,15.778-0.482,23.666c-0.15,7.889-0.454,15.773-0.694,23.659c-0.225,7.886-0.563,15.769-0.888,23.651
			c-0.309,7.883-0.66,15.765-1.029,23.646l-0.684-0.78l13.045,1.484l6.523,0.73c2.176,0.238,4.348,0.501,6.525,0.714l-0.399,0.363
			l0.062-12.189l-0.089-12.19l-0.425-24.379l-0.073-12.189c-0.021-4.063,0.043-8.126,0.06-12.189l0.09-12.19l0.208-12.189
			l0.082,0.284c-1.423-2.319-2.811-4.66-4.201-7C1186.334,259.623,1184.964,257.322,1183.62,255.004z"/>
	</g>
	<g>
		<polygon fill="#AA8A78" points="1039.105,241.711 1047.822,255.51 1047.822,353.027 1021.69,350.489 1024.959,255.874 		"/>
		<path d="M1039.19,241.658c1.541,2.244,3.053,4.506,4.565,6.769c1.516,2.26,3.032,4.52,4.516,6.8l0.079,0.122l0.003,0.162
			l0.208,12.19l0.09,12.189c0.017,4.063,0.08,8.126,0.06,12.189l-0.073,12.189l-0.425,24.379l-0.089,12.19l0.062,12.189l0.002,0.401
			l-0.401-0.039c-2.178-0.209-4.36-0.37-6.541-0.555l-6.542-0.539l-13.087-1.054l-0.7-0.056l0.017-0.724
			c0.176-7.888,0.369-15.775,0.605-23.661c0.22-7.886,0.426-15.773,0.746-23.656c0.305-7.884,0.545-15.769,0.94-23.649
			c0.361-7.882,0.709-15.764,1.151-23.643l0.014-0.241l0.156-0.15c2.406-2.312,4.793-4.644,7.224-6.931l7.351-6.973L1039.19,241.658
			z M1039.087,241.876l-6.793,7.178c-2.284,2.433-4.613,4.823-6.923,7.231l0.17-0.391c-0.103,7.891-0.3,15.778-0.482,23.666
			c-0.15,7.889-0.454,15.772-0.694,23.658c-0.225,7.886-0.563,15.769-0.888,23.651c-0.31,7.883-0.66,15.765-1.029,23.646
			l-0.684-0.78l13.045,1.484l6.523,0.73c2.176,0.238,4.348,0.501,6.525,0.714l-0.399,0.363l0.062-12.189l-0.089-12.19l-0.425-24.379
			l-0.073-12.189c-0.021-4.063,0.043-8.126,0.06-12.189l0.09-12.189l0.208-12.19l0.082,0.284c-1.423-2.319-2.811-4.66-4.201-6.999
			C1041.801,246.495,1040.431,244.194,1039.087,241.876z"/>
	</g>
	<g>
		<polygon fill="#AA8A78" points="906.921,229.848 915.636,243.647 915.636,341.165 889.505,338.626 892.772,244.011 		"/>
		<path d="M907.006,229.794c1.54,2.244,3.052,4.506,4.564,6.769c1.515,2.261,3.031,4.52,4.515,6.801l0.079,0.122l0.003,0.162
			l0.208,12.19l0.09,12.189c0.017,4.063,0.08,8.126,0.061,12.189l-0.074,12.19l-0.425,24.379l-0.089,12.189l0.062,12.19l0.002,0.401
			l-0.401-0.039c-2.178-0.209-4.36-0.37-6.541-0.555l-6.542-0.539l-13.086-1.054l-0.7-0.056l0.017-0.724
			c0.176-7.888,0.369-15.775,0.604-23.661c0.221-7.886,0.426-15.773,0.746-23.656c0.305-7.884,0.546-15.77,0.94-23.65
			c0.361-7.881,0.709-15.763,1.151-23.642l0.014-0.241l0.156-0.15c2.406-2.313,4.794-4.644,7.225-6.932l7.353-6.973L907.006,229.794
			z M906.902,230.013l-6.794,7.178c-2.285,2.434-4.613,4.823-6.924,7.231l0.17-0.391c-0.103,7.891-0.299,15.778-0.482,23.666
			c-0.149,7.889-0.454,15.772-0.693,23.658c-0.225,7.887-0.563,15.769-0.888,23.651c-0.31,7.883-0.66,15.766-1.029,23.646
			l-0.684-0.78l13.045,1.484l6.522,0.73c2.176,0.238,4.348,0.501,6.525,0.714l-0.399,0.363l0.062-12.19l-0.089-12.189l-0.425-24.379
			l-0.074-12.19c-0.02-4.063,0.044-8.126,0.061-12.189l0.09-12.189l0.208-12.19l0.082,0.284c-1.422-2.319-2.811-4.66-4.2-7
			C909.616,234.631,908.246,232.331,906.902,230.013z"/>
	</g>
	<g>
		<polygon fill="#AA8A78" points="767.835,214.684 776.551,228.484 776.551,326.001 750.42,323.464 753.688,228.847 		"/>
		<path d="M767.92,214.631c1.541,2.244,3.053,4.507,4.564,6.769c1.516,2.26,3.032,4.52,4.516,6.801l0.079,0.122l0.003,0.162
			l0.208,12.189l0.09,12.19c0.017,4.063,0.08,8.126,0.06,12.189l-0.073,12.189l-0.425,24.379l-0.089,12.19l0.062,12.189l0.002,0.401
			l-0.401-0.039c-2.178-0.209-4.36-0.37-6.541-0.555l-6.542-0.538l-13.086-1.053l-0.7-0.056l0.017-0.724
			c0.176-7.888,0.369-15.775,0.604-23.661c0.221-7.887,0.426-15.774,0.746-23.657c0.305-7.884,0.546-15.77,0.94-23.65
			c0.361-7.882,0.709-15.764,1.151-23.643l0.014-0.241l0.156-0.15c2.406-2.312,4.793-4.644,7.224-6.932l7.353-6.973L767.92,214.631z
			 M767.816,214.849l-6.793,7.178c-2.285,2.433-4.614,4.823-6.924,7.231l0.17-0.391c-0.103,7.891-0.299,15.778-0.482,23.666
			c-0.149,7.889-0.453,15.772-0.693,23.658c-0.225,7.886-0.563,15.769-0.888,23.652c-0.31,7.883-0.66,15.765-1.029,23.646
			l-0.684-0.78l13.045,1.484l6.522,0.73c2.176,0.238,4.348,0.5,6.525,0.714l-0.399,0.363l0.062-12.189l-0.089-12.19l-0.425-24.379
			l-0.073-12.189c-0.021-4.063,0.043-8.126,0.06-12.189l0.09-12.19l0.208-12.189l0.082,0.284c-1.422-2.319-2.811-4.66-4.2-7
			C770.53,219.468,769.16,217.167,767.816,214.849z"/>
	</g>
</g>
<g id="Ebene_2">
	<g>
		<polygon fill="#219849" points="191.765,268.683 1194.026,366.038 1201.084,848.174 -5.07,841.221 -11.133,361.68 		"/>
		<path d="M191.739,268.53l250.678,23.603l250.599,23.996l125.293,12.065l125.275,12.242l250.521,24.796l0.724,0.072l0.01,0.724
			l3.19,241.072l3.692,241.065l0.01,0.649l-0.65-0.003l-603.082-2.607l-301.539-1.709l-301.537-2.039l-1.214-0.008l-0.014-1.211
			L-8.93,601.461l-2.409-239.778l-0.001-0.134l0.122-0.056L191.739,268.53z M191.791,268.836l-202.837,93.031l0.12-0.189
			l3.654,239.762l3.438,239.766l-1.227-1.219l301.54,1.438l301.539,1.768l603.072,4.346l-0.641,0.646l-3.365-241.069l-3.867-241.063
			l0.733,0.796l-250.61-23.881l-125.289-12.098l-125.272-12.273l-250.532-24.682L191.791,268.836z"/>
	</g>
</g>
<g id="Ebene_3">
	<ellipse cx="1179.29" cy="326.987" rx="1.684" ry="6.799"/>
	<ellipse cx="1179.29" cy="295.692" rx="1.684" ry="6.799"/>
	<ellipse cx="1035.756" cy="313.389" rx="1.684" ry="6.799"/>
	<ellipse cx="1035.756" cy="282.094" rx="1.684" ry="6.799"/>
	<ellipse cx="903.254" cy="304.541" rx="1.684" ry="6.799"/>
	<ellipse cx="903.254" cy="273.245" rx="1.684" ry="6.799"/>
	<ellipse cx="763.802" cy="292.742" rx="1.684" ry="6.799"/>
	<ellipse cx="763.802" cy="261.447" rx="1.684" ry="6.799"/>
	<g>
		<path fill="#A3847E" d="M631.073,311.34c0,0-50.996,20.832-129.807,27.786c-78.81,6.954-177.324-28.975-250.34-17.385
			c-73.017,11.59-141.396,62.934-172.688,74.523s-87.203,12.402-87.203,12.402v139.077c0,0,8.531,1.205,83.795-23.735
			c75.265-24.941,127.072-80.248,166.477-109.224C280.712,385.81,486.2,380.849,486.2,380.849s172.896-7.163,203.029-14.117
			c30.135-6.954,61.219-43.319,61.219-43.319L631.073,311.34z"/>
		<path d="M631.093,311.493c-12.838,5.074-26.063,9.075-39.388,12.644c-13.348,3.545-26.843,6.54-40.429,9.041
			c-13.588,2.497-27.276,4.447-41.014,5.934c-6.86,0.736-13.76,1.404-20.686,1.66c-6.919,0.284-13.846,0.272-20.761,0.064
			c-27.687-0.867-55.095-4.914-82.374-9.013c-27.284-4.097-54.541-8.528-82.003-10.335c-13.719-0.864-27.49-1.09-41.151,0.076
			c-13.648,1.158-27.135,4.026-40.329,7.804c-26.404,7.663-51.601,19.1-76.01,31.84c-12.22,6.37-24.251,13.109-36.336,19.78
			c-6.047,3.327-12.107,6.643-18.286,9.757c-6.163,3.107-12.525,6.03-19.198,7.987c-6.642,2.018-13.416,3.495-20.223,4.714
			c-6.809,1.212-13.655,2.18-20.521,2.957c-13.735,1.536-27.521,2.458-41.342,2.765l0.495-0.502l-0.05,34.77l0.041,34.769
			l0.106,69.539l-0.516-0.593c0.122,0.007,0.44-0.002,0.672-0.021l0.768-0.072c0.515-0.06,1.034-0.134,1.552-0.216
			c1.037-0.165,2.075-0.36,3.11-0.569c2.071-0.419,4.136-0.894,6.196-1.393c4.12-1.002,8.219-2.103,12.307-3.245
			c8.176-2.291,16.307-4.755,24.416-7.287c8.108-2.536,16.193-5.151,24.263-7.811l12.089-4.031c4-1.374,7.976-2.852,11.912-4.414
			c15.748-6.262,30.884-14.009,45.374-22.797c14.497-8.789,28.349-18.616,41.758-29.009c13.427-10.378,26.372-21.372,39.436-32.265
			c6.535-5.444,13.095-10.873,19.842-16.1c1.688-1.305,3.386-2.598,5.103-3.87c1.719-1.31,3.641-2.506,5.545-3.528
			c3.846-2.062,7.853-3.687,11.903-5.126c8.111-2.854,16.409-4.97,24.742-6.824c8.338-1.84,16.728-3.376,25.14-4.744
			c16.826-2.722,33.735-4.786,50.668-6.536c33.875-3.422,67.849-5.561,101.843-7.041c8.5-0.36,16.999-0.677,25.511-0.909
			c8.445-0.321,16.968-0.72,25.448-1.101l50.934-2.478c16.975-0.874,33.946-1.815,50.907-2.886
			c16.958-1.084,33.915-2.25,50.816-3.851c4.224-0.406,8.443-0.845,12.647-1.356c4.197-0.523,8.412-1.074,12.492-1.937
			c8.135-1.79,15.808-5.512,22.976-9.899c7.177-4.422,13.902-9.593,20.285-15.142c6.364-5.564,12.458-11.504,18.059-17.809
			l0.535,1.335L631.093,311.493z M631.053,311.187l119.478,11.418l1.57,0.15l-1.035,1.185c-5.638,6.454-11.695,12.456-18.08,18.136
			c-6.396,5.654-13.15,10.942-20.415,15.504c-7.262,4.521-15.072,8.427-23.572,10.363c-4.234,0.916-8.458,1.484-12.691,2.035
			c-4.23,0.536-8.465,0.998-12.701,1.426c-16.943,1.69-33.908,2.94-50.877,4.11c-16.97,1.156-33.945,2.182-50.924,3.141
			c-16.979,0.97-33.962,1.822-50.949,2.616c-8.504,0.392-16.963,0.797-25.507,1.131c-8.483,0.24-16.975,0.566-25.46,0.934
			c-33.943,1.501-67.865,3.716-101.656,7.107c-16.894,1.698-33.757,3.709-50.507,6.372c-8.373,1.338-16.717,2.842-24.987,4.643
			c-8.262,1.814-16.477,3.889-24.417,6.658c-3.961,1.394-7.858,2.967-11.513,4.915c-1.84,0.987-3.542,2.035-5.211,3.296
			c-1.702,1.253-3.389,2.531-5.067,3.82c-6.709,5.167-13.265,10.562-19.808,15.981c-13.063,10.865-26.14,21.775-39.674,32.124
			c-13.526,10.352-27.512,20.149-42.151,28.903c-14.631,8.754-29.916,16.462-45.81,22.671c-3.975,1.551-7.979,3.011-12.026,4.374
			l-12.129,3.961c-8.094,2.611-16.204,5.174-24.338,7.658c-8.136,2.481-16.295,4.894-24.506,7.135
			c-4.106,1.118-8.226,2.194-12.373,3.173c-2.075,0.488-4.156,0.952-6.253,1.362c-1.049,0.204-2.102,0.395-3.165,0.557
			c-0.532,0.08-1.065,0.153-1.606,0.212l-0.82,0.072c-0.298,0.013-0.511,0.038-0.92,0.005l-0.516-0.042l0-0.551l0.106-69.539
			l0.041-34.769l-0.05-34.77l0-0.49l0.496-0.013c13.767-0.351,27.541-1.318,41.226-2.895c13.666-1.627,27.336-3.824,40.459-7.876
			c6.569-1.989,12.779-4.9,18.902-8.047c6.119-3.146,12.14-6.503,18.154-9.874c12.02-6.763,24.017-13.603,36.22-20.084
			c24.376-12.954,49.603-24.716,76.262-32.46c13.309-3.846,26.942-6.784,40.804-7.995c13.844-1.228,27.75-1.023,41.557-0.083
			c27.637,1.905,54.928,6.431,82.19,10.608c13.634,2.102,27.268,4.155,40.943,5.832c13.674,1.665,27.387,3.029,41.138,3.549
			c6.874,0.257,13.754,0.32,20.624,0.089c6.869-0.202,13.717-0.813,20.579-1.498c13.71-1.368,27.37-3.247,40.951-5.585
			c13.582-2.335,27.083-5.167,40.448-8.548c6.683-1.691,13.329-3.526,19.93-5.516c6.596-1.997,13.168-4.109,19.601-6.578
			L631.053,311.187z"/>
	</g>
</g>
<g id="Ebene_4">
	<ellipse cx="633.8" cy="277.591" rx="1.683" ry="6.799"/>
	<ellipse cx="633.8" cy="246.296" rx="1.683" ry="6.799"/>
	<ellipse cx="487.219" cy="269.792" rx="1.683" ry="6.799"/>
	<ellipse cx="487.219" cy="238.497" rx="1.683" ry="6.799"/>
	<ellipse cx="347.5" cy="257.474" rx="1.683" ry="6.799"/>
	<ellipse cx="347.5" cy="226.178" rx="1.683" ry="6.799"/>
	<ellipse cx="203.658" cy="250.675" rx="1.683" ry="6.799"/>
	<ellipse cx="203.658" cy="219.379" rx="1.683" ry="6.799"/>
	<ellipse cx="33.17" cy="305.325" rx="1.031" ry="6.799"/>
	<ellipse cx="33.17" cy="274.03" rx="1.031" ry="6.799"/>
	<ellipse cx="130.298" cy="270.42" rx="1.031" ry="6.799"/>
	<ellipse cx="130.298" cy="239.125" rx="1.031" ry="6.799"/>
	<g>
		<path d="M-11.107,437.969c15.417,2.085,30.802,4.357,46.154,6.819c7.683,1.191,15.347,2.489,23.021,3.737l22.991,3.902
			l22.964,4.062c7.645,1.41,15.299,2.765,22.935,4.23c15.285,2.849,30.536,5.891,45.755,9.121
			c-15.418-2.081-30.803-4.352-46.155-6.814c-7.683-1.19-15.347-2.492-23.02-3.738l-22.991-3.906l-22.963-4.065
			c-7.646-1.408-15.299-2.767-22.935-4.23C19.364,444.235,4.112,441.196-11.107,437.969z"/>
	</g>
	<g>
		<path d="M80.802,393.216c13.532,1.758,27.032,3.704,40.499,5.838c6.74,1.028,13.462,2.163,20.192,3.247l20.164,3.412l20.136,3.571
			c6.702,1.247,13.415,2.438,20.107,3.74c13.4,2.522,26.766,5.237,40.1,8.141c-13.533-1.754-27.033-3.698-40.5-5.834
			c-6.74-1.027-13.461-2.165-20.192-3.248l-20.163-3.416l-20.136-3.576c-6.703-1.244-13.414-2.439-20.107-3.74
			C107.502,398.828,94.136,396.116,80.802,393.216z"/>
	</g>
	<g>
		<path d="M213.787,330.858c8.171,4.679,16.178,9.605,24.127,14.618c3.99,2.483,7.92,5.056,11.879,7.586l11.787,7.726l11.697,7.86
			c3.868,2.668,7.767,5.289,11.603,8.003c7.706,5.379,15.353,10.848,22.835,16.564c-8.173-4.676-16.181-9.601-24.13-14.614
			c-3.991-2.482-7.919-5.058-11.879-7.586l-11.785-7.729l-11.695-7.864c-3.869-2.666-7.765-5.29-11.603-8.003
			C228.919,342.039,221.271,336.572,213.787,330.858z"/>
	</g>
	<g>
		<path d="M574.629,326.244c11.98,1.479,23.91,3.251,35.821,5.125c5.96,0.909,11.901,1.924,17.853,2.89l17.823,3.055l17.796,3.214
			c5.922,1.128,11.854,2.2,17.766,3.382c11.835,2.308,23.651,4.72,35.416,7.426c-11.981-1.476-23.91-3.246-35.821-5.12
			c-5.961-0.908-11.902-1.927-17.853-2.89l-17.823-3.059l-17.795-3.218c-5.923-1.125-11.854-2.202-17.767-3.383
			C598.211,331.357,586.394,328.946,574.629,326.244z"/>
	</g>
	<g>
		<path d="M462.992,340.326c11.875,2.051,23.684,4.39,35.47,6.831c5.899,1.193,11.775,2.491,17.662,3.74l17.625,3.903l17.589,4.061
			c5.85,1.41,11.713,2.764,17.551,4.228c11.689,2.871,23.354,5.845,34.954,9.11c-11.875-2.047-23.685-4.385-35.471-6.826
			c-5.9-1.192-11.774-2.494-17.662-3.741l-17.624-3.907l-17.588-4.064c-5.851-1.407-11.713-2.766-17.551-4.228
			C486.258,346.56,474.592,343.587,462.992,340.326z"/>
	</g>
	<g>
		<path d="M369.992,329.315c6.065,4.249,11.94,8.724,17.749,13.28c2.922,2.256,5.776,4.595,8.661,6.896l8.554,7.024l8.451,7.148
			c2.78,2.427,5.597,4.81,8.341,7.28c5.527,4.894,10.985,9.87,16.252,15.075c-6.067-4.246-11.943-8.72-17.751-13.277
			c-2.923-2.255-5.774-4.597-8.661-6.896l-8.551-7.027l-8.448-7.152c-2.782-2.425-5.596-4.811-8.341-7.28
			C380.721,339.492,375.262,334.517,369.992,329.315z"/>
	</g>
	<g>
		<path fill="#F8BB99" d="M-5.209,578.641c0,0,10.431-2.967,44.042-13.073c33.61-10.106,72.448,2.18,122.568,12.263
			c50.12,10.083,61.061-7.302,108.325-32.8c47.262-25.497,223.983-43.855,263.691,7.626c39.706,51.482,226.304-9.989,343.36-16.342
			c117.057-6.351,168.237,82.844,220.88,113.581c52.64,30.735,102.823,31.848,102.823,31.848l0.44,73.226
			c0,0-75.995,42.206-163.555,60.985c-87.559,18.779-419.855,30.41-462.737-3.2c-42.883-33.609-151.015-31.384-266.913-82.332
			C191.818,679.473,17.6,767.047-4.815,736.588C-8.297,730.303-5.209,578.641-5.209,578.641z"/>
		<path d="M-5.209,578.641c12.787-3.721,25.537-7.565,38.289-11.404c3.195-0.937,6.354-1.99,9.592-2.79
			c3.232-0.81,6.513-1.423,9.817-1.856c6.609-0.876,13.296-1.054,19.952-0.783c13.327,0.563,26.507,2.813,39.568,5.379
			c13.066,2.593,26.052,5.556,39.084,8.283c6.521,1.337,13.024,2.786,19.605,3.727c6.576,0.948,13.228,1.469,19.861,1.189
			c6.63-0.267,13.221-1.415,19.521-3.492c6.31-2.06,12.308-4.974,18.126-8.178c5.821-3.21,11.5-6.687,17.206-10.117
			c5.703-3.439,11.43-6.846,17.235-10.118c2.912-1.629,5.799-3.265,8.783-4.796c2.992-1.502,6.071-2.81,9.187-4.013
			c6.236-2.396,12.619-4.365,19.054-6.117c12.88-3.479,25.975-6.087,39.14-8.173c13.169-2.071,26.422-3.6,39.713-4.629
			c13.291-1.023,26.624-1.547,39.958-1.472c13.332,0.083,26.673,0.751,39.929,2.308c13.241,1.58,26.442,3.995,39.174,8.131
			c6.354,2.081,12.586,4.613,18.465,7.858c5.86,3.247,11.399,7.237,15.91,12.286c1.139,1.241,2.141,2.65,3.188,3.854
			c1.066,1.236,2.229,2.391,3.456,3.471c2.462,2.155,5.205,3.988,8.101,5.538c5.804,3.101,12.163,5.104,18.618,6.502
			c12.959,2.751,26.322,3.255,39.585,3.047c13.284-0.25,26.552-1.337,39.771-2.787c13.222-1.461,26.402-3.311,39.556-5.339
			c26.309-4.066,52.507-8.854,78.751-13.415c26.244-4.551,52.529-8.994,79.008-12.168c13.242-1.559,26.518-2.845,39.875-3.348
			c13.363-0.418,26.781,0.4,39.974,2.654c13.192,2.238,26.137,5.933,38.542,10.943c12.415,4.997,24.271,11.315,35.517,18.532
			c11.254,7.216,21.897,15.329,32.144,23.872c10.256,8.539,20.11,17.522,30.017,26.412c9.919,8.861,19.872,17.718,30.686,25.375
			c2.702,1.911,5.468,3.727,8.298,5.427c2.845,1.691,5.74,3.31,8.664,4.874c5.85,3.124,11.834,5.996,17.926,8.617
			c12.187,5.239,24.804,9.476,37.674,12.687c6.436,1.604,12.936,2.952,19.48,4.012c6.534,1.042,13.158,1.874,19.713,2.146
			l0.946,0.04l0.006,0.928l0.459,73.226l0.004,0.595l-0.515,0.279c-11.414,6.184-23.056,11.815-34.83,17.201
			c-11.777,5.369-23.695,10.425-35.741,15.161c-24.092,9.46-48.696,17.671-73.784,24.106c-6.271,1.608-12.574,3.1-18.904,4.464
			c-6.344,1.372-12.733,2.469-19.132,3.457c-12.802,1.96-25.654,3.473-38.521,4.807c-25.737,2.637-51.537,4.519-77.354,6.011
			c-51.638,2.918-103.363,4.318-155.086,3.885c-25.86-0.252-51.725-0.971-77.546-2.646c-12.908-0.85-25.807-1.939-38.66-3.501
			c-6.426-0.785-12.84-1.692-19.226-2.8c-6.384-1.115-12.746-2.414-19.017-4.141c-3.133-0.872-6.245-1.845-9.293-3.027
			c-3.042-1.188-6.048-2.554-8.816-4.416c-1.403-0.962-2.6-1.985-3.913-2.891c-1.301-0.926-2.635-1.809-3.993-2.654
			c-2.717-1.689-5.539-3.217-8.417-4.635c-11.555-5.622-23.92-9.485-36.351-12.877c-12.457-3.361-25.066-6.18-37.689-8.933
			l-37.902-8.195c-25.249-5.57-50.399-11.734-75.132-19.353c-12.366-3.803-24.626-7.956-36.734-12.52
			c-6.054-2.28-12.07-4.662-18.042-7.153c-5.999-2.44-11.834-5.24-17.858-7.494c-12.049-4.562-24.609-7.725-37.333-9.784
			c-12.73-2.06-25.627-3.031-38.527-3.224c-25.821-0.36-51.606,2.308-77.119,6.275c-25.534,3.968-50.812,9.406-76.139,14.589
			c-12.67,2.55-25.36,5.094-38.201,6.731c-6.418,0.783-12.89,1.371-19.378,1.106c-3.236-0.148-6.49-0.518-9.622-1.445
			c-3.1-0.921-6.171-2.528-8.138-5.222l-0.012-0.018l-0.003-0.007c-0.373-0.852-0.425-1.657-0.551-2.484
			c-0.103-0.822-0.178-1.645-0.244-2.467c-0.13-1.646-0.219-3.292-0.294-4.938c-0.148-3.293-0.237-6.586-0.307-9.879
			c-0.136-6.586-0.187-13.172-0.209-19.758c-0.04-13.173,0.043-26.344,0.167-39.515C-6.189,631.316-5.756,604.977-5.209,578.641z
			 M-5.209,578.641c-0.473,26.338-0.83,52.678-1.017,79.019C-6.313,670.829-6.358,684-6.281,697.17
			c0.042,6.585,0.111,13.169,0.266,19.751c0.079,3.291,0.178,6.581,0.334,9.867c0.08,1.644,0.173,3.285,0.308,4.923
			c0.067,0.817,0.145,1.635,0.249,2.446c0.115,0.792,0.21,1.661,0.506,2.321l-0.016-0.023c1.893,2.578,4.865,4.135,7.913,5.031
			c3.076,0.902,6.296,1.26,9.507,1.397c6.438,0.245,12.888-0.358,19.287-1.158c12.804-1.67,25.478-4.247,38.136-6.832
			c25.304-5.253,50.581-10.768,76.135-14.812c25.531-4.056,51.364-6.787,77.272-6.457c12.943,0.172,25.894,1.126,38.691,3.176
			c12.79,2.049,25.431,5.209,37.573,9.784c6.091,2.269,11.928,5.06,17.906,7.479c5.962,2.477,11.969,4.843,18.013,7.109
			c12.089,4.534,24.331,8.658,36.679,12.435c24.698,7.564,49.817,13.679,75.057,19.205l37.91,8.133
			c12.636,2.735,25.269,5.536,37.778,8.891c12.485,3.387,24.931,7.245,36.658,12.927c2.921,1.433,5.792,2.981,8.566,4.699
			c1.387,0.859,2.75,1.76,4.083,2.705c1.349,0.929,2.621,2.002,3.887,2.862c2.603,1.747,5.52,3.077,8.492,4.229
			c2.979,1.15,6.045,2.104,9.139,2.959c12.41,3.356,25.208,5.28,38.001,6.87c12.811,1.55,25.682,2.631,38.567,3.471
			c25.775,1.659,51.612,2.364,77.448,2.603c51.676,0.405,103.37-1.021,154.964-3.965c25.795-1.504,51.571-3.398,77.267-6.045
			c12.844-1.339,25.672-2.855,38.423-4.815c6.374-0.987,12.729-2.082,19.019-3.445c6.304-1.362,12.581-2.852,18.829-4.457
			c24.994-6.425,49.521-14.624,73.542-24.071c12.01-4.729,23.895-9.778,35.636-15.139c11.726-5.377,23.377-10.994,34.694-17.123
			l-0.511,0.874l-0.421-73.226l0.952,0.968c-6.754-0.284-13.368-1.126-19.98-2.181c-6.601-1.073-13.15-2.436-19.636-4.055
			c-12.969-3.243-25.681-7.519-37.961-12.807c-6.139-2.645-12.17-5.543-18.065-8.695c-2.946-1.578-5.864-3.211-8.742-4.924
			c-2.876-1.731-5.68-3.574-8.413-5.509c-10.935-7.752-20.917-16.651-30.844-25.527c-9.91-8.904-19.741-17.873-29.952-26.385
			c-10.201-8.515-20.778-16.585-31.947-23.754c-11.161-7.17-22.91-13.438-35.207-18.396c-12.287-4.97-25.102-8.634-38.168-10.858
			c-13.065-2.239-26.364-3.058-39.618-2.65c-13.262,0.491-26.521,1.767-39.727,3.315c-26.42,3.152-52.685,7.577-78.922,12.112
			c-26.239,4.546-52.458,9.273-78.801,13.31c-13.172,2.01-26.376,3.842-39.631,5.284c-13.253,1.433-26.562,2.502-39.911,2.732
			c-13.331,0.187-26.776-0.335-39.905-3.142c-6.54-1.43-13.011-3.472-18.966-6.663c-2.97-1.597-5.797-3.49-8.343-5.727
			c-1.27-1.121-2.474-2.32-3.58-3.606c-1.133-1.313-2.058-2.63-3.169-3.846c-4.371-4.909-9.783-8.832-15.546-12.036
			c-5.781-3.203-11.938-5.719-18.23-7.79c-12.611-4.119-25.74-6.546-38.922-8.141c-13.198-1.57-26.498-2.259-39.795-2.363
			c-13.3-0.095-26.604,0.406-39.869,1.406c-13.265,1.006-26.494,2.51-39.639,4.556c-13.14,2.059-26.214,4.614-39.06,8.049
			c-6.417,1.728-12.782,3.672-18.986,6.035c-3.099,1.187-6.159,2.477-9.123,3.954c-2.945,1.501-5.858,3.14-8.762,4.753
			c-5.805,3.251-11.534,6.637-17.245,10.058c-5.715,3.414-11.408,6.879-17.258,10.083c-5.847,3.198-11.892,6.115-18.26,8.174
			c-6.358,2.077-13.014,3.217-19.689,3.466c-6.681,0.263-13.363-0.28-19.958-1.25c-6.604-0.964-13.108-2.433-19.625-3.788
			c-13.029-2.766-26.005-5.765-39.057-8.394c-13.046-2.601-26.207-4.885-39.512-5.485c-6.645-0.289-13.321-0.13-19.92,0.726
			c-3.299,0.424-6.576,1.026-9.805,1.825c-3.23,0.789-6.398,1.834-9.594,2.762C20.35,571.147,7.588,574.956-5.209,578.641z"/>
	</g>
	<path fill="#36A9E1" d="M932.042,145.182c6.188,5.166,30.722,13.025,37.241,6.516c6.521-6.508,31.661,8.054,48.017,12.396
		c16.355,4.341,25.174-7.447,33.139-10.493c7.965-3.047,3.681,0.196,15.045-1.756c11.364-1.951-8.537-19.37-20.517-24.705
		c-11.98-5.334-57.374-26.493-65.169-12.95c-7.794,13.542-21.815,0.287-39.049,4.507c-17.231,4.217-31.593-13.149-43.863-9.986
		C884.614,111.872,925.854,140.015,932.042,145.182z"/>
	<path fill="#36A9E1" d="M330.709,105.182c6.188,5.166,30.722,13.025,37.241,6.516c6.521-6.508,31.661,8.054,48.017,12.396
		c16.355,4.341,25.174-7.447,33.139-10.493c7.965-3.047,3.681,0.196,15.045-1.756c11.364-1.951-8.537-19.37-20.517-24.705
		c-11.98-5.334-57.374-26.493-65.169-12.95c-7.794,13.542-21.815,0.287-39.049,4.507c-17.231,4.217-31.593-13.149-43.863-9.986
		C283.281,71.872,324.521,100.015,330.709,105.182z"/>
	<path fill="#36A9E1" d="M857.709,133.542c6.188,5.166,30.722,13.025,37.241,6.516c6.521-6.508,31.661,8.054,48.017,12.396
		c16.355,4.341,25.174-7.447,33.139-10.493c7.965-3.047,3.681,0.196,15.045-1.756c11.364-1.951-8.537-19.37-20.517-24.705
		c-11.98-5.334-57.374-26.493-65.169-12.95c-7.794,13.542-21.815,0.287-39.049,4.507c-17.231,4.217-31.593-13.149-43.863-9.986
		C810.281,100.232,851.521,128.375,857.709,133.542z"/>
	<path fill="#36A9E1" d="M329.987,95.418c-11.517,8.348-57.665,20.47-70.26,9.401c-12.596-11.066-59.636,12.17-90.434,18.761
		c-30.801,6.586-47.949-13.343-63.145-18.711c-15.197-5.37-6.962,0.185-28.553-3.495c-21.591-3.679,15.421-31.865,37.897-40.273
		c22.477-8.406,107.613-41.831,122.888-19.024c15.275,22.807,41.316,1.314,74.105,8.988c32.786,7.67,59.31-20.643,82.664-14.916
		C418.505,41.877,341.505,87.069,329.987,95.418z"/>
	<path fill="#6AB353" d="M880.247,521.684c-20.718,8.338-98.187,14.34-115.592-2.495c-17.407-16.833-99.204,3.267-150.515,5.346
		c-51.314,2.074-73.75-27.092-96.826-37.142c-23.077-10.052-11.259-1.207-45.074-10.414c-33.814-9.206,33.12-37.744,71.502-43.886
		c38.383-6.139,184.178-31.426,202.848,1.048c18.669,32.474,66.195,10.26,117.002,26.922c50.806,16.657,100.882-14.22,137.003-2.017
		C1036.719,471.25,900.966,513.345,880.247,521.684z"/>
	<path fill="#6AB353" d="M151.195,768.626c10.046-4.496,48.088-8.922,56.98-0.96c8.893,7.961,48.8-3.488,74.034-5.485
		c25.235-1.993,36.839,11.946,48.395,16.46c11.556,4.513,5.569,0.38,22.398,4.274c16.83,3.894-15.598,19.218-34.386,22.971
		s-90.12,18.97-99.931,3.328c-9.811-15.641-32.8-3.801-58.139-11.044c-25.34-7.24-49.419,8.917-67.442,3.59
		C75.083,796.434,141.148,773.128,151.195,768.626z"/>
</g>
</svg>
