<?xml version="1.0" encoding="UTF-8" standalone="no"?>
<!-- Generator: Adobe Illustrator 15.1.0, SVG Export Plug-In . SVG Version: 6.00 Build 0)  -->

<svg
   xmlns:dc="http://purl.org/dc/elements/1.1/"
   xmlns:cc="http://creativecommons.org/ns#"
   xmlns:rdf="http://www.w3.org/1999/02/22-rdf-syntax-ns#"
   xmlns:svg="http://www.w3.org/2000/svg"
   xmlns="http://www.w3.org/2000/svg"
   xmlns:sodipodi="http://sodipodi.sourceforge.net/DTD/sodipodi-0.dtd"
   xmlns:inkscape="http://www.inkscape.org/namespaces/inkscape"
   version="1.1"
   id="rutsche"
   x="0px"
   y="0px"
   width="1190.55px"
   height="841.89px"
   viewBox="0 0 1190.55 841.89"
   enable-background="new 0 0 1190.55 841.89"
   xml:space="preserve"
   inkscape:version="0.48.5 r10040"
   sodipodi:docname="rutsche - Kopie.svg"><metadata
   id="metadata50"><rdf:RDF><cc:Work
       rdf:about=""><dc:format>image/svg+xml</dc:format><dc:type
         rdf:resource="http://purl.org/dc/dcmitype/StillImage" /></cc:Work></rdf:RDF></metadata><defs
   id="defs48" /><sodipodi:namedview
   pagecolor="#ffffff"
   bordercolor="#666666"
   borderopacity="1"
   objecttolerance="10"
   gridtolerance="10"
   guidetolerance="10"
   inkscape:pageopacity="0"
   inkscape:pageshadow="2"
   inkscape:window-width="1280"
   inkscape:window-height="1002"
   id="namedview46"
   showgrid="false"
   inkscape:zoom="0.54682465"
   inkscape:cx="570.74452"
   inkscape:cy="362.22152"
   inkscape:window-x="-8"
   inkscape:window-y="-8"
   inkscape:window-maximized="1"
   inkscape:current-layer="rutsche" />
   
   <g
   id="gruppeRutsche" />&quot;&gt;





<g
   id="g3004"
   transform="translate(-9.1436988,0)"><g
     transform="matrix(-1,0,0,1,1442.2163,0)"
     id="leiter">
	<polygon
   style="fill:#e50e34;stroke:#010202;stroke-width:2;stroke-miterlimit:10"
   id="rutsche1"
   points="955.798,588.325 955.507,572.902 1077.921,616.875 1082.835,633.133 "
   stroke-miterlimit="10" />
	<polygon
   style="fill:#e50e34;stroke:#010202;stroke-width:2;stroke-miterlimit:10"
   id="rutsche2"
   points="939.936,508.283 939.645,492.859 1062.059,536.833 1066.974,553.091 "
   stroke-miterlimit="10" />
	<polygon
   style="fill:#e50e34;stroke:#010202;stroke-width:2;stroke-miterlimit:10"
   id="rutsche3"
   points="909.387,423.38 909.096,407.957 1031.513,451.931 1036.425,468.188 "
   stroke-miterlimit="10" />
	<polygon
   style="fill:#e50e34;stroke:#010202;stroke-width:2;stroke-miterlimit:10"
   id="rutsche4"
   points="890.302,343.337 890.011,327.915 1012.428,371.888 1017.34,388.146 "
   stroke-miterlimit="10" />
	<polygon
   style="fill:#e50e34;stroke:#010202;stroke-width:2;stroke-miterlimit:10"
   id="rutsche5"
   points="725.449,599.037 725.158,583.615 847.572,627.589 852.485,643.848 "
   stroke-miterlimit="10" />
	<polygon
   style="fill:#e50e34;stroke:#010202;stroke-width:2;stroke-miterlimit:10"
   id="rutsche6"
   points="739.85,386.173 739.559,370.75 861.974,414.726 866.887,430.983 "
   stroke-miterlimit="10" />
</g><g
     transform="matrix(-1,0,0,1,1442.2163,0)"
     id="bogen_hinten">
	<path
   style="fill:#e50e34;stroke:#010202;stroke-width:2;stroke-miterlimit:10"
   inkscape:connector-curvature="0"
   id="rutsche7"
   d="m 716.26,652.545 c -17.121,0.14 28.521,-385.108 28.521,-385.108 0,0 12.344,-128.196 18.75,-155.817 6.401,-27.621 20.631,-50.683 58.815,-49.646 13.267,0.361 31.086,14.183 38.01,47.457 6.928,33.275 38.766,186.775 47.255,222.362 13.011,54.534 76.743,316.135 60.843,314.578 -15.902,-1.559 -127.909,-529.4 -127.909,-529.4 0,0 -4.451,-34.647 -28.545,-36.604 -24.097,-1.958 -30.78,45.627 -30.78,45.627 0,0 -47.838,526.412 -64.96,526.551 z"
   stroke-miterlimit="10" />
</g><g
     transform="matrix(-1,0,0,1,1442.2163,0)"
     id="seite_hinten">
	<path
   style="fill:#b4191e;stroke:#010202;stroke-width:2;stroke-miterlimit:10"
   inkscape:connector-curvature="0"
   id="rutsche8"
   d="m 353.135,682.01 c 0,0 -5.873,-17.401 -1.1,-58.941 4.773,-41.54 62.803,-57.097 62.803,-57.097 0,0 31.31,-0.921 67.227,-16.117 35.917,-15.194 108.683,-94.648 126.635,-135.963 17.951,-41.316 64.007,-122.505 78.277,-150.06 14.27,-27.556 34.07,-58.865 58.705,-83.271 24.636,-24.405 55.946,-40.062 77.128,-51.113 21.183,-11.051 52.266,-14.735 52.266,-14.735 l 5.524,18.881 -98.527,40.057 -91.877,150.115 -97.619,186.028 -159.321,91.173 -66.998,82.656 -13.123,-1.613 z"
   stroke-miterlimit="10" />
	<g
   id="g22">
		<path
   style="fill:#b4191e;stroke:#000000;stroke-opacity:1"
   inkscape:connector-curvature="0"
   id="rutsche9"
   d="m 363.061,686.159 c 0,0 -1.843,-66.306 25.787,-86.567 27.629,-20.262 58.02,-16.579 87.49,-26.708 29.469,-10.129 108.891,-76.051 142.053,-141.823 33.162,-65.773 56.41,-116.04 105.909,-197.082 49.499,-81.041 155.407,-105.907 155.407,-105.907 l 13.813,53.414 c 0,0 -95.778,36.378 -120.643,62.394 -24.866,26.016 -67.229,142.052 -104.067,207.44 -36.837,65.387 -85.646,140.903 -137.219,167.61 -51.571,26.707 -58.479,15.426 -74.365,29.931 -15.886,14.505 -7.598,28.088 -7.598,28.088 l -86.567,9.21 z" />
	
	</g>
</g><g
     transform="matrix(-1,0,0,1,1442.2163,0)"
     id="rutsche_flaeche">
	<path
   inkscape:connector-curvature="0"
   style="fill:#0055d4;stroke:#010202;stroke-width:2;stroke-miterlimit:10"
   id="rutsche10"
   d="m 386.546,678.745 c 0,0 -5.528,-46.967 11.05,-56.177 16.578,-9.21 74.368,-11.052 74.368,-11.052 0,0 -23.716,10.585 -34.307,26.935 -10.59,16.35 -9.209,59.633 -9.209,59.633 l -41.902,-19.339 z"
   stroke-miterlimit="10" />
	<path
   inkscape:connector-curvature="0"
   style="fill:#0055d4;stroke:#010202;stroke-width:2;stroke-miterlimit:10"
   id="rutsche11"
   d="m 499.129,597.703 c 0,0 38.218,-11.742 81.502,-52.264 43.285,-40.521 90.483,-131.695 90.483,-131.695 0,0 94.22,-171.07 112.588,-180.966 22.097,-19.105 50.419,-27.166 50.419,-27.166 0,0 -93.013,124.552 -115.809,179.122 -22.796,54.57 -54.009,111.947 -117.19,168.307 -63.182,56.357 -101.993,44.662 -101.993,44.662 z"
   stroke-miterlimit="10" />
</g><g
     transform="matrix(-1,0,0,1,1442.2163,0)"
     id="seite_vorne">
	<path
   style="fill:#b4191e;stroke:#010202;stroke-width:2;stroke-miterlimit:10"
   inkscape:connector-curvature="0"
   id="rutsche12"
   d="m 432.823,713.741 c 0,0 -5.873,-17.401 -1.1,-58.941 4.772,-41.541 62.803,-57.097 62.803,-57.097 0,0 31.311,-0.921 67.227,-16.117 35.917,-15.196 108.684,-94.648 126.635,-135.965 17.952,-41.314 64.007,-122.504 78.277,-150.059 14.27,-27.555 34.07,-58.864 58.706,-83.27 24.635,-24.405 55.946,-40.062 77.128,-51.113 21.183,-11.05 52.264,-14.734 52.264,-14.734 l 5.524,18.88 -98.526,40.058 -91.877,150.114 -97.618,186.029 -159.322,91.173 -66.998,82.655 -13.123,-1.613 z"
   stroke-miterlimit="10" />
	<g
   id="g36">
		<path
   style="fill:#b4191e;stroke:#000000;stroke-opacity:1;stroke-width:1.99999997;stroke-miterlimit:4;stroke-dasharray:none"
   inkscape:connector-curvature="0"
   id="rutsche13"
   d="m 442.749,717.891 c 0,0 -1.843,-66.307 25.787,-86.567 27.629,-20.262 58.02,-16.579 87.49,-26.708 29.469,-10.129 108.89,-76.051 142.052,-141.823 33.162,-65.773 56.411,-116.041 105.909,-197.082 49.5,-81.041 155.408,-105.907 155.408,-105.907 l 13.813,53.414 c 0,0 -95.777,36.378 -120.644,62.394 -24.864,26.016 -67.229,142.052 -104.065,207.439 -36.837,65.388 -85.647,140.904 -137.219,167.611 -51.572,26.706 -58.48,15.425 -74.366,29.93 -15.884,14.506 -7.597,28.089 -7.597,28.089 l -86.568,9.21 z" />
		
	</g>
</g><g
     transform="matrix(-1,0,0,1,1442.2163,0)"
     id="bogen_vorne">
	<path
   style="fill:#e50e34;stroke:#010202;stroke-width:2;stroke-miterlimit:10"
   inkscape:connector-curvature="0"
   id="rutsche14"
   d="m 842.271,698.084 c -16.812,0.643 17.723,-409.174 17.723,-409.174 0,0 8.697,-136.293 14.249,-165.766 5.552,-29.473 18.908,-54.338 56.436,-54.338 13.038,0 30.905,14.142 38.596,49.226 7.69,35.083 43.057,196.932 52.345,234.422 14.233,57.45 83.807,333.003 68.15,331.811 -15.657,-1.193 -139.752,-557.667 -139.752,-557.667 0,0 -5.295,-36.609 -29.01,-37.991 -23.715,-1.382 -29.01,49.27 -29.01,49.27 0,0 -32.916,559.565 -49.727,560.207 z"
   stroke-miterlimit="10" />
</g></g>
</svg>