<?xml version="1.0" encoding="UTF-8" standalone="no"?>
<!-- Generator: Adobe Illustrator 15.1.0, SVG Export Plug-In . SVG Version: 6.00 Build 0)  -->

<svg
   xmlns:dc="http://purl.org/dc/elements/1.1/"
   xmlns:cc="http://creativecommons.org/ns#"
   xmlns:rdf="http://www.w3.org/1999/02/22-rdf-syntax-ns#"
   xmlns:svg="http://www.w3.org/2000/svg"
   xmlns="http://www.w3.org/2000/svg"
   xmlns:sodipodi="http://sodipodi.sourceforge.net/DTD/sodipodi-0.dtd"
   xmlns:inkscape="http://www.inkscape.org/namespaces/inkscape"
   version="1.1"
   x="0px"
   y="0px"
   width="1190.55px"
   height="841.89px"
   viewBox="0 0 1190.55 841.89"
   enable-background="new 0 0 1190.55 841.89"
   xml:space="preserve"
   id="svg2"
   inkscape:version="0.48.5 r10040"
   sodipodi:docname="sandkasten.svg"><metadata
   id="metadata40"><rdf:RDF><cc:Work
       rdf:about=""><dc:format>image/svg+xml</dc:format><dc:type
         rdf:resource="http://purl.org/dc/dcmitype/StillImage" /></cc:Work></rdf:RDF></metadata><defs
   id="defs38" /><sodipodi:namedview
   pagecolor="#ffffff"
   bordercolor="#666666"
   borderopacity="1"
   objecttolerance="10"
   gridtolerance="10"
   guidetolerance="10"
   inkscape:pageopacity="0"
   inkscape:pageshadow="2"
   inkscape:window-width="1280"
   inkscape:window-height="1002"
   id="namedview36"
   showgrid="false"
   inkscape:zoom="1.6663083"
   inkscape:cx="574.71182"
   inkscape:cy="451.15584"
   inkscape:window-x="-8"
   inkscape:window-y="-8"
   inkscape:window-maximized="1"
   inkscape:current-layer="svg2" />
   <g id="gruppeSandkasten">
<g
   id="Ebene_1">
	<polygon
   fill="#8B5745"
   stroke="#000000"
   stroke-width="3"
   stroke-miterlimit="10"
   points="287.134,407.218 596.933,518.318    868.903,404.551 868.797,378.778 609.768,481.875 286.245,373.442  "
   id="fill1" />
	<g
   id="g7">
		<polygon
   fill="#8B5745"
   points="273.803,357.446 574.107,278.238 883.515,358.333 609.768,469.432   "
   id="fill2" />
		<path
   d="M273.459,357.435l75.288-20.291l75.014-20.038L498.81,297.2l75.084-19.773l0.213-0.057l0.211,0.056l154.583,40.511    l38.661,10.068l38.694,9.942l77.391,19.875l1.546,0.397l-1.48,0.604l-136.729,55.905l-136.822,55.674l-0.358,0.146l-0.367-0.123    l-83.978-28.037l-83.918-28.216l-83.911-28.238c-27.981-9.378-55.905-18.933-83.859-28.394L273.459,357.435z M274.159,357.457    c27.932,9.167,55.895,18.243,83.799,27.493l84.072,27.755l84.064,27.777l84.005,27.955l-0.725,0.023l136.924-55.424    l137.018-55.193l0.066,1.001l-77.312-20.173l-38.658-10.082l-38.69-9.956L573.897,279.05l0.424-0.001l-75.069,19.831    l-75.104,19.698l-75.138,19.566L274.159,357.457z"
   id="path1" />
	</g>
</g>
<g
   id="Ebene_2">
	<g
   id="g14">
		<polygon
   fill="#F9C6AD"
   points="333.564,358.654 573.847,289.776 825.066,359.934 601.091,446.645   "
   id="fill3" />
		<path
   d="M333.071,358.645l30.391-9.082l29.96-8.873l59.969-17.572l60.026-17.374c19.997-5.834,40.051-11.464,60.082-17.18    l0.345-0.098l0.341,0.096c20.926,5.88,41.802,11.937,62.704,17.899c20.897,5.983,41.782,12.01,62.712,17.875l31.379,8.854    l31.42,8.707c20.938,5.836,41.913,11.537,62.879,17.273l2.294,0.628l-2.222,0.872l-111.775,43.901l-55.943,21.81l-27.971,10.905    l-28.005,10.818l-0.524,0.203l-0.532-0.176l-66.861-22.058l-66.793-22.266l-66.75-22.4c-22.254-7.452-44.451-15.082-66.679-22.614    L333.071,358.645z M334.092,358.665c22.2,7.08,44.431,14.066,66.604,21.228l67.014,21.596l66.97,21.73l66.902,21.938l-1.057,0.026    l27.989-10.858l28.022-10.772l56.046-21.545l112.198-42.809l0.073,1.5c-20.904-5.956-41.799-11.948-62.73-17.806l-31.385-8.833    l-31.427-8.685c-20.94-5.828-41.925-11.494-62.898-17.204c-20.967-5.73-41.961-11.367-62.905-17.18l0.686-0.002    c-20.017,5.764-40.009,11.614-60.059,17.259l-60.115,17.065l-60.171,16.867l-30.111,8.346L334.092,358.665z"
   id="path2" />
	</g>
</g>
<g
   id="Ebene_3">
	<polygon
   fill="#8B5745"
   stroke="#000000"
   stroke-width="3"
   stroke-miterlimit="10"
   points="333.689,358.159 350.227,363.517    573.933,296.294 810.26,364.556 828.038,359.118 574.057,285.876  "
   id="fill4" />
	<line
   fill="none"
   stroke="#000000"
   stroke-miterlimit="10"
   x1="573.891"
   y1="286.232"
   x2="573.891"
   y2="297.098"
   id="line23" />
</g>
<g
   id="Ebene_4">
	<g
   id="g26">
		<polygon
   fill="#8B5745"
   points="273.803,357.446 273.684,370.613 609.963,482.244 884.135,372.582 884.107,359.022     610.456,469.556   "
   id="fill5" />
		<path
   d="M273.803,357.446l-0.062,13.167l-0.04-0.055l168.373,55.114l168.277,55.401l-0.847,0.025l274.073-109.91l-0.943,1.396    l-0.019-13.56l2.05,1.38l-273.758,110.27l-0.414,0.167l-0.42-0.141l-168.188-56.472L273.803,357.446z M273.803,357.446    l168.569,55.327l168.465,55.638l-0.833,0.026l273.545-110.797l2.044-0.828l0.006,2.208l0.036,13.56l0.002,1.018l-0.945,0.377    L610.421,483.39L610,483.558l-0.426-0.143l-168.002-56.229l-167.907-56.518l-0.04-0.013l0-0.042L273.803,357.446z"
   id="path3" />
	</g>
	
		
	<line
   fill="none"
   stroke="#000000"
   stroke-miterlimit="10"
   x1="610.261"
   y1="470.344"
   x2="610.261"
   y2="481.21"
   id="line34" />
</g>
</g>
</svg>