<?xml version="1.0" encoding="UTF-8" standalone="no"?>
<!-- Generator: Adobe Illustrator 15.1.0, SVG Export Plug-In . SVG Version: 6.00 Build 0)  -->

<svg
   xmlns:dc="http://purl.org/dc/elements/1.1/"
   xmlns:cc="http://creativecommons.org/ns#"
   xmlns:rdf="http://www.w3.org/1999/02/22-rdf-syntax-ns#"
   xmlns:svg="http://www.w3.org/2000/svg"
   xmlns="http://www.w3.org/2000/svg"
   xmlns:sodipodi="http://sodipodi.sourceforge.net/DTD/sodipodi-0.dtd"
   xmlns:inkscape="http://www.inkscape.org/namespaces/inkscape"
   version="1.1"
   x="0px"
   y="0px"
   width="1190.55px"
   height="841.89px"
   viewBox="0 0 1190.55 841.89"
   enable-background="new 0 0 1190.55 841.89"
   xml:space="preserve"
   id="svg2"
   inkscape:version="0.48.5 r10040"
   sodipodi:docname="schaukel.svg"><metadata
   id="metadata84"><rdf:RDF><cc:Work
       rdf:about=""><dc:format>image/svg+xml</dc:format><dc:type
         rdf:resource="http://purl.org/dc/dcmitype/StillImage" /><dc:title /></cc:Work></rdf:RDF></metadata><defs
   id="defs82"><inkscape:perspective
     sodipodi:type="inkscape:persp3d"
     inkscape:vp_x="0 : 420.94501 : 1"
     inkscape:vp_y="0 : 1000 : 0"
     inkscape:vp_z="1190.55 : 420.94501 : 1"
     inkscape:persp3d-origin="595.27502 : 280.63 : 1"
     id="perspective3115" /></defs><sodipodi:namedview
   pagecolor="#ffffff"
   bordercolor="#666666"
   borderopacity="1"
   objecttolerance="10"
   gridtolerance="10"
   guidetolerance="10"
   inkscape:pageopacity="0"
   inkscape:pageshadow="2"
   inkscape:window-width="1920"
   inkscape:window-height="1018"
   id="namedview80"
   showgrid="false"
   inkscape:zoom="0.89595113"
   inkscape:cx="312.44192"
   inkscape:cy="410.24302"
   inkscape:window-x="1272"
   inkscape:window-y="-8"
   inkscape:window-maximized="1"
   inkscape:current-layer="svg2" />
   
<g
   id="g3027" />
   <g
   id="g3028"
   transform="matrix(-1,0,0,1,1120.2027,7.134661)"><g
     transform="translate(3.5673696,21.403983)"
     id="Ebene_6">
	<path
   style="fill:#80433d;stroke:#000000;stroke-width:2;stroke-miterlimit:10"
   inkscape:connector-curvature="0"
   stroke-miterlimit="10"
   d="M 426.833,607.837 C 428.559,583.064 626.741,45.48 626.741,45.48 l 39.585,-7.819 239.38,658.029 c 0,0 -32.195,0.146 -37.394,-14.476 C 863.114,666.595 649.583,66.037 649.583,66.037 L 458.195,624.725 c 0,0 -30.812,6.61 -31.362,-16.888 z"
   id="path5" />
</g><g
     transform="translate(3.5673696,21.403983)"
     id="Ebene_1">
	<path
   style="fill:#80433d;stroke:#000000;stroke-width:2;stroke-miterlimit:10"
   inkscape:connector-curvature="0"
   stroke-miterlimit="10"
   d="m 148.703,745.138 c 0,0 -29.666,-15.606 -27.768,-21.482 1.899,-5.876 200.57,-635.506 200.57,-635.506 l 39.601,7.368 224.956,738.984 c 0,0 -16.91,2.176 -34.538,-18.471 C 533.899,795.38 341.437,132.838 341.437,132.838 l -192.734,612.3 z"
   id="path8" />
	
		<line
   style="fill:none;stroke:#000000;stroke-width:2;stroke-miterlimit:10"
   stroke-miterlimit="10"
   x1="884.242"
   y1="295.70401"
   x2="899.203"
   y2="304.845"
   id="line10" />
</g><g
     transform="translate(3.5673696,21.403983)"
     id="Ebene_7">
	<polygon
   style="fill:#80433d;stroke:#000000;stroke-width:2;stroke-miterlimit:10"
   stroke-miterlimit="10"
   points="523.086,514.941 512.503,481.516 816.782,537.935 828.33,570.846 "
   id="polygon13" />
</g><g
     transform="translate(3.5673696,21.403983)"
     id="Ebene_3">
	<polygon
   style="fill:#5f322d;stroke:#000000;stroke-width:2;stroke-miterlimit:10;fill-opacity:1"
   stroke-miterlimit="10"
   points="689.539,32.65 691.25,13.714 360.864,57.646 361.105,95.517 "
   id="polygon16" />
</g><g
     transform="translate(3.5673696,21.403983)"
     id="Ebene_2">
	<polygon
   style="fill:#80433d;stroke:#000000;stroke-width:2;stroke-miterlimit:10"
   stroke-miterlimit="10"
   points="179.387,646.974 188.964,616.08 503.995,677.716 515.631,714.674 "
   id="polygon19" />
</g><g
     transform="translate(3.5673696,21.403983)"
     id="Ebene_4">
	<polygon
   style="fill:#ab5951;stroke:#000000;stroke-width:2;stroke-miterlimit:10;fill-opacity:1"
   stroke-miterlimit="10"
   points="321.268,88.334 322.999,53.291 360.862,59.496 361.105,95.517 "
   id="polygon22" />
</g><g
     transform="translate(3.5673696,21.403983)"
     id="Ebene_5">
	<polygon
   style="fill:#ab5951;stroke:#000000;stroke-width:2;stroke-miterlimit:10;fill-opacity:1"
   stroke-miterlimit="10"
   points="359.575,58.918 684.926,13.549 625.285,7.902 323.758,52.967 "
   id="polygon25" />
	
	
		
</g><g
     transform="translate(3.5673696,21.403983)"
     id="Ebene_8">
	<path
   style="fill:#80433d;stroke:#000000;stroke-width:2;stroke-miterlimit:10"
   inkscape:connector-curvature="0"
   stroke-miterlimit="10"
   d="m 689.295,33.262 247.774,643.922 c -2.414,13.27 -31.363,18.507 -31.363,18.507 l -239.38,-658.03 22.969,-4.399 z"
   id="path32" />
</g><g
     transform="translate(3.5673696,21.403983)"
     id="Ebene_10">
	<path
   style="fill:#5f322d;stroke:#000000;stroke-width:2;stroke-miterlimit:10;fill-opacity:1"
   inkscape:connector-curvature="0"
   stroke-miterlimit="10"
   d="m 485.215,616.678 c 0,0 -19.096,6.49 -26.827,7.845 l 15.247,-46.305 11.58,38.46 z"
   id="path35" />
</g><g
     transform="translate(3.5673696,21.403983)"
     id="Ebene_9">
	<polygon
   style="fill:#5f322d;stroke:#000000;stroke-width:2;stroke-miterlimit:10;fill-opacity:1"
   stroke-miterlimit="10"
   points="510.911,471.152 649.707,65.52 661.436,99.729 536.28,468.407 809.026,515.378 816.443,536.92 513.393,480.979 "
   id="polygon38" />
	<path
   style="fill:#8e5f54;stroke:#000000;stroke-width:2;stroke-miterlimit:10"
   inkscape:connector-curvature="0"
   stroke-miterlimit="10"
   d="M 510.464,476.156"
   id="path40" />
	<path
   style="fill:#8e5f54;stroke:#000000;stroke-width:2;stroke-miterlimit:10"
   inkscape:connector-curvature="0"
   stroke-miterlimit="10"
   d="M 535.484,469.743"
   id="path42" />
	<path
   style="fill:none;stroke:#000000;stroke-width:2;stroke-miterlimit:10"
   inkscape:connector-curvature="0"
   stroke-miterlimit="10"
   d="m 511.932,476.165 25.696,-7.342 -25.696,7.342 z"
   id="path44" />
</g><g
     transform="translate(3.5673696,21.403983)"
     id="Ebene_12">
	<polygon
   style="fill:#5f322d;stroke:#000000;stroke-width:2;stroke-miterlimit:10;fill-opacity:1"
   stroke-miterlimit="10"
   points="342.849,132.591 352.047,169.773 227.805,605.223 496.795,657.09 502.789,676.51 189.917,616.281 "
   id="polygon48" />
	<path
   style="fill:none;stroke:#000000;stroke-width:2;stroke-miterlimit:10"
   inkscape:connector-curvature="0"
   stroke-miterlimit="10"
   d="m 190.412,614.872 38.6,-9.649 -38.6,9.649 z"
   id="path50" />
</g><g
     transform="translate(3.5673696,21.403983)"
     id="Ebene_13">
	<path
   style="fill:#5f322d;stroke:#000000;stroke-width:2;stroke-miterlimit:10;fill-opacity:1"
   inkscape:connector-curvature="0"
   stroke-miterlimit="10"
   d="m 209.712,653.471 c 0,0 -25.633,81.724 -37.394,90.469 -11.761,8.745 -23.942,0.766 -23.942,0.766 l 31.011,-97.731 30.325,6.496 z"
   id="path53" />
</g><g
     transform="translate(3.5673696,21.403983)"
     id="Ebene_14">
	<path
   style="fill:#80433d;stroke:#000000;stroke-width:2;stroke-miterlimit:10"
   inkscape:connector-curvature="0"
   stroke-miterlimit="10"
   d="m 386.714,90.848 c 0,0 232.332,709.543 232.801,721.325 -1.638,11.358 -33.562,21.561 -33.562,21.561 L 361.105,95.517 386.714,90.848 z"
   id="path56" />
</g><g
     transform="translate(3.5673696,21.403983)"
     id="Ebene_17">
	<polygon
   style="fill:#f13464;stroke:#000000;stroke-width:2;stroke-miterlimit:10;fill-opacity:1"
   stroke-miterlimit="10"
   points="945.786,264.491 945.786,360.897 885.117,394.971 881.794,290.682 "
   id="polygon59" />
</g><g
     transform="translate(3.5673696,21.403983)"
     id="Ebene_18">
	<polygon
   style="fill:#d30e40;stroke:#000000;stroke-width:2;stroke-miterlimit:10"
   stroke-miterlimit="10"
   points="945.786,264.491 955.047,274.096 956.547,373.744 895.879,406.237 885.117,394.971 945.786,360.897 "
   id="polygon62" />
</g><g
     transform="translate(3.5673696,21.403983)"
     id="Ebene_16">
	<path
   style="fill:none;stroke:#000000;stroke-width:3;stroke-miterlimit:10"
   inkscape:connector-curvature="0"
   stroke-miterlimit="10"
   d="m 462.135,95.415 c 0,0 36.566,122.997 101.393,179.511 64.823,56.515 142.115,78.953 210.262,88.925 68.148,9.973 151.927,-5.067 151.927,-5.067"
   id="path65" />
	<path
   style="fill:none;stroke:#000000;stroke-width:3;stroke-miterlimit:10"
   inkscape:connector-curvature="0"
   stroke-miterlimit="10"
   d="m 568.605,73.599 c 0,0 27.104,92.906 72.887,142.961 45.785,50.056 117.132,76.292 170.987,84.099 53.854,7.808 117.647,-18.442 117.647,-18.442"
   id="path67" />
	
		<line
   style="fill:none;stroke:#000000;stroke-width:3;stroke-miterlimit:10"
   stroke-miterlimit="10"
   x1="888.10699"
   y1="364.703"
   x2="903.47302"
   y2="374.91699"
   id="line69" />
	<line
   style="fill:none;stroke:#000000;stroke-width:2;stroke-miterlimit:10"
   stroke-miterlimit="10"
   x1="945.72803"
   y1="360.74701"
   x2="956.27899"
   y2="372.25"
   id="line71" />
	
		<line
   style="fill:none;stroke:#000000;stroke-width:3;stroke-miterlimit:10"
   stroke-miterlimit="10"
   x1="892.69202"
   y1="295.423"
   x2="899.88501"
   y2="301.20099"
   id="line73" />
</g><g
     transform="translate(3.5673696,21.403983)"
     id="Ebene_15">
	<path
   style="fill:#d30e40;stroke:#000000;stroke-width:2;stroke-miterlimit:10"
   inkscape:connector-curvature="0"
   stroke-miterlimit="10"
   d="m 441.851,80.958 31.644,-6.349 c 0,0 1.504,16.636 -11.01,21.505 -12.514,4.868 -20.634,-15.156 -20.634,-15.156 z"
   id="path76" />
	<path
   style="fill:#d30e40;stroke:#000000;stroke-width:2;stroke-miterlimit:10"
   inkscape:connector-curvature="0"
   stroke-miterlimit="10"
   d="m 548.788,60.161 31.722,-5.946 c 0,0 1.292,16.653 -11.281,21.363 -12.574,4.708 -20.441,-15.417 -20.441,-15.417 z"
   id="path78" />
</g></g>
</svg>