<?xml version="1.0" encoding="UTF-8" standalone="no"?>
<!-- Generator: Adobe Illustrator 15.1.0, SVG Export Plug-In . SVG Version: 6.00 Build 0)  -->

<svg
   xmlns:dc="http://purl.org/dc/elements/1.1/"
   xmlns:cc="http://creativecommons.org/ns#"
   xmlns:rdf="http://www.w3.org/1999/02/22-rdf-syntax-ns#"
   xmlns:svg="http://www.w3.org/2000/svg"
   xmlns="http://www.w3.org/2000/svg"
   xmlns:sodipodi="http://sodipodi.sourceforge.net/DTD/sodipodi-0.dtd"
   xmlns:inkscape="http://www.inkscape.org/namespaces/inkscape"
   version="1.1"
   x="0px"
   y="0px"
   width="1190.55px"
   height="841.89px"
   viewBox="0 0 1190.55 841.89"
   enable-background="new 0 0 1190.55 841.89"
   xml:space="preserve"
   id="svg2"
   inkscape:version="0.48.5 r10040"
   sodipodi:docname="tor - Kopie.svg"><metadata
   id="metadata86"><rdf:RDF><cc:Work
       rdf:about=""><dc:format>image/svg+xml</dc:format><dc:type
         rdf:resource="http://purl.org/dc/dcmitype/StillImage" /><dc:title></dc:title></cc:Work></rdf:RDF></metadata><defs
   id="defs84">

		

		
				
				</defs><sodipodi:namedview
   pagecolor="#ffffff"
   bordercolor="#666666"
   borderopacity="1"
   objecttolerance="10"
   gridtolerance="10"
   guidetolerance="10"
   inkscape:pageopacity="0"
   inkscape:pageshadow="2"
   inkscape:window-width="1920"
   inkscape:window-height="1018"
   id="namedview82"
   showgrid="false"
   inkscape:zoom="0.90890784"
   inkscape:cx="444.40243"
   inkscape:cy="385.34111"
   inkscape:window-x="1272"
   inkscape:window-y="-8"
   inkscape:window-maximized="1"
   inkscape:current-layer="Ebene_2"
   inkscape:object-paths="false"
   showguides="true"
   inkscape:guide-bbox="true"><sodipodi:guide
     orientation="1,0"
     position="77.777334,628.92361"
     id="guide3131" /></sodipodi:namedview>


	<g
   id="Ebene_2">

		<g
   id="g4059"
   transform="translate(1120.3588,146.63397)"><path
     inkscape:connector-curvature="0"
     id="col-1"
     d="m -931.09507,31.590316 0,516.281254 824.71875,10.7279 0,-516.281254 -824.71875,-10.7279 z m 193.125,51.44965 c 61.84073,0.80443 111.96875,51.584514 111.96875,113.425244 0,61.84073 -50.12802,111.31669 -111.96875,110.51226 -61.84073,-0.80441 -112,-51.58491 -112,-113.42564 0,-61.84073 50.15927,-111.316274 112,-110.511864 z m 432.46875,199.406794 c 61.84073,0.80443 111.96875,51.58451 111.96875,113.42524 0,61.84073 -50.12802,111.31669 -111.96875,110.51226 -61.84073,-0.80442 -112,-51.58491 -112,-113.42564 0,-61.84073 50.15927,-111.31628 112,-110.51186 z"
     style="fill:#339200;fill-opacity:1;fill-rule:evenodd;stroke:none" /><path
     inkscape:connector-curvature="0"
     id="col-2"
     d="m -106.89074,42.110526 25.525005,-33.9898298 0,491.2581438 -25.672385,59.21203 z"
     style="fill:#349a00;fill-opacity:1;stroke:#000000;stroke-width:1.73315907;stroke-linecap:butt;stroke-linejoin:miter;stroke-miterlimit:4;stroke-opacity:1;stroke-dasharray:none" /><path
     inkscape:connector-curvature="0"
     id="col-3"
     d="m -892.45108,7.1700005 -37.47979,23.7458925 39.36904,0.191242 781.9193,10.64581 29.644214,-32.5749025 -720.884574,-1.7849262 -0.081,-0.2231158 -1.21325,0 -90.58955,0 -0.6844,0 z"
     style="fill:#153e00;fill-opacity:1;stroke:#000000;stroke-width:2.01529884;stroke-linecap:butt;stroke-linejoin:miter;stroke-miterlimit:4;stroke-opacity:1;stroke-dasharray:none" /><path
     id="path3968"
     transform="translate(-1.4056594e-5,0)"
     d="m -737.34375,80.84375 c -62.57919,0 -113.3125,51.07998 -113.3125,114.09375 0,63.01377 50.73331,114.09375 113.3125,114.09375 62.57919,0 113.3125,-51.07998 113.3125,-114.09375 0,-63.01377 -50.73331,-114.09375 -113.3125,-114.09375 z m 3.65625,5.96875 c 59.71782,0 108.125,48.77373 108.125,108.90625 0,60.13252 -48.40718,108.875 -108.125,108.875 -59.71782,0 -108.125,-48.74248 -108.125,-108.875 0,-60.13252 48.40718,-108.90625 108.125,-108.90625 z"
     style="fill:#040c00;fill-opacity:1;stroke:none"
     inkscape:connector-curvature="0" /><path
     id="path3968-9"
     d="m -306.02696,282.44113 c -62.57919,0 -113.31249,51.07998 -113.31249,114.09375 0,63.01377 50.7333,114.09375 113.31249,114.09375 62.57919,0 113.3125,-51.07998 113.3125,-114.09375 0,-63.01377 -50.73331,-114.09375 -113.3125,-114.09375 z m 3.65625,5.96875 c 59.71782,0 108.125,48.77373 108.125,108.90625 0,60.13252 -48.40718,108.875 -108.125,108.875 -59.71782,0 -108.12499,-48.74248 -108.12499,-108.875 0,-60.13252 48.40717,-108.90625 108.12499,-108.90625 z"
     style="fill:#040c00;fill-opacity:1;stroke:none"
     inkscape:connector-curvature="0" /><path
     inkscape:connector-curvature="0"
     id="col-4"
     d="m -930.96876,31.139945 0,516.281295 824.71875,10.75 0,-516.281295 -824.71875,-10.75 z m 27.625,15.15625 770.78125,10.03125 0,482.499995 -770.78125,-10.0312 0,-482.500045 z"
     style="fill:#256b00;fill-opacity:1;fill-rule:evenodd;stroke:#000000;stroke-width:2;stroke-miterlimit:4;stroke-opacity:1;stroke-dasharray:none" /></g></g>

</svg>